<svg width="198" height="249" viewBox="0 0 198 249" fill="none" xmlns="http://www.w3.org/2000/svg">
<path fill-rule="evenodd" clip-rule="evenodd" d="M4.2051 36.4985C3.43448 37.2511 3 38.2828 3 39.36L3 236C3 238.209 4.79086 240 7 240L191.273 240C193.482 240 195.273 238.209 195.273 236L195.273 7C195.273 4.79086 193.482 3 191.273 3L40.1318 3C39.0873 3 38.0842 3.40859 37.3369 4.13844L4.2051 36.4985Z" fill="white" stroke="#9DA1A9" stroke-width="5"/>
<path d="M42 11.7778L42 34.6131C42 37.7136 38.8241 40.2271 34.9064 40.2271L5 40.2271" stroke="#9DA1A9" stroke-width="5" stroke-linecap="round"/>
<path fill-rule="evenodd" clip-rule="evenodd" d="M107 73C107 70.2386 109.239 68 112 68H130C132.761 68 135 70.2386 135 73V73C135 75.7614 132.761 78 130 78H112C109.239 78 107 75.7614 107 73V73Z" fill="#C1C4CB"/>
<path fill-rule="evenodd" clip-rule="evenodd" d="M39 117C39 114.239 41.2386 112 44 112H147C149.761 112 152 114.239 152 117V117C152 119.761 149.761 122 147 122H44C41.2386 122 39 119.761 39 117V117Z" fill="#C1C4CB"/>
<path fill-rule="evenodd" clip-rule="evenodd" d="M39 194C39 191.239 41.2386 189 44 189H113C115.761 189 118 191.239 118 194V194C118 196.761 115.761 199 113 199H44C41.2386 199 39 196.761 39 194V194Z" fill="#C1C4CB"/>
<path fill-rule="evenodd" clip-rule="evenodd" d="M39 139C39 136.239 41.2386 134 44 134H119C121.761 134 124 136.239 124 139V139C124 141.761 121.761 144 119 144H44C41.2386 144 39 141.761 39 139V139Z" fill="#C1C4CB"/>
<rect x="42" y="46" width="46" height="46" rx="3.5" fill="#DFE1E4"/>
<path fill-rule="evenodd" clip-rule="evenodd" d="M42.2648 80.6307L57.3627 71.4297L71.2802 76.1694L88 60.5264V88.0001C88 90.2092 86.2091 92.0001 84 92.0001H46C43.7909 92.0001 42 90.2092 42 88.0001V80.7631" fill="#C1C4CB"/>
<rect x="39" y="167" width="113" height="10" rx="5" fill="#C1C4CB"/>
<rect x="107" y="46" width="47" height="10" rx="5" fill="#6499F5"/>
</svg>
