<svg width="227" height="237" viewBox="0 0 227 237" fill="none" xmlns="http://www.w3.org/2000/svg">
<path fill-rule="evenodd" clip-rule="evenodd" d="M170.982 76.1428C170.994 75.8856 171 75.6276 171 75.369C171 55.283 134.511 39 89.5 39C44.4888 39 8 55.283 8 75.369C8 75.6276 8.00605 75.8856 8.01808 76.1428H8V196.857H8.01808C8.00605 197.114 8 197.372 8 197.631C8 217.717 44.4888 234 89.5 234C134.511 234 171 217.717 171 197.631C171 197.372 170.994 197.114 170.982 196.857H171V76.1428H170.982Z" fill="#AEC8F9"/>
<path d="M170.982 76.1428L168.485 76.026L168.362 78.6428H170.982V76.1428ZM8.01808 76.1428V78.6428H10.6377L10.5154 76.026L8.01808 76.1428ZM8 76.1428V73.6428H5.5V76.1428H8ZM8 196.857H5.5V199.357H8V196.857ZM8.01808 196.857L10.5154 196.974L10.6378 194.357H8.01808V196.857ZM170.982 196.857V194.357H168.362L168.485 196.974L170.982 196.857ZM171 196.857V199.357H173.5V196.857H171ZM171 76.1428H173.5V73.6428H171V76.1428ZM168.5 75.369C168.5 75.5887 168.495 75.8076 168.485 76.026L173.479 76.2597C173.493 75.9635 173.5 75.6666 173.5 75.369H168.5ZM89.5 41.5C111.738 41.5 131.751 45.5274 146.11 51.9352C153.293 55.1405 158.952 58.8924 162.781 62.9324C166.598 66.9593 168.5 71.1575 168.5 75.369H173.5C173.5 69.5376 170.841 64.1681 166.41 59.4928C161.991 54.8305 155.714 50.7455 148.148 47.3692C133.01 40.6141 112.273 36.5 89.5 36.5V41.5ZM10.5 75.369C10.5 71.1575 12.4023 66.9593 16.2191 62.9324C20.0484 58.8924 25.7068 55.1405 32.8896 51.9352C47.249 45.5274 67.2617 41.5 89.5 41.5V36.5C66.7271 36.5 45.9898 40.6141 30.852 47.3692C23.2861 50.7455 17.0092 54.8305 12.5902 59.4928C8.15879 64.1681 5.5 69.5376 5.5 75.369H10.5ZM10.5154 76.026C10.5051 75.8076 10.5 75.5886 10.5 75.369H5.5C5.5 75.6666 5.50696 75.9635 5.52081 76.2596L10.5154 76.026ZM8 78.6428H8.01808V73.6428H8V78.6428ZM10.5 196.857V76.1428H5.5V196.857H10.5ZM8.01808 194.357H8V199.357H8.01808V194.357ZM10.5 197.631C10.5 197.411 10.5051 197.192 10.5154 196.974L5.52081 196.74C5.50696 197.036 5.5 197.333 5.5 197.631H10.5ZM89.5 231.5C67.2617 231.5 47.249 227.473 32.8896 221.065C25.7068 217.859 20.0484 214.108 16.2191 210.068C12.4023 206.041 10.5 201.843 10.5 197.631H5.5C5.5 203.462 8.15879 208.832 12.5902 213.507C17.0092 218.169 23.2861 222.255 30.852 225.631C45.9898 232.386 66.7271 236.5 89.5 236.5V231.5ZM168.5 197.631C168.5 201.843 166.598 206.041 162.781 210.068C158.952 214.108 153.293 217.859 146.11 221.065C131.751 227.473 111.738 231.5 89.5 231.5V236.5C112.273 236.5 133.01 232.386 148.148 225.631C155.714 222.255 161.991 218.169 166.41 213.507C170.841 208.832 173.5 203.462 173.5 197.631H168.5ZM168.485 196.974C168.495 197.192 168.5 197.411 168.5 197.631H173.5C173.5 197.333 173.493 197.037 173.479 196.74L168.485 196.974ZM171 194.357H170.982V199.357H171V194.357ZM168.5 76.1428V196.857H173.5V76.1428H168.5ZM170.982 78.6428H171V73.6428H170.982V78.6428Z" fill="#6499F5"/>
<path d="M65.3496 170.714C72.9807 171.612 81.0915 172.095 89.4997 172.095C98.7207 172.095 107.584 171.514 115.849 170.442" stroke="#6499F5" stroke-width="8" stroke-linecap="round" stroke-dasharray="2 12"/>
<path fill-rule="evenodd" clip-rule="evenodd" d="M21.9707 89.9983C21.9707 88.5653 23.4335 87.5973 24.7525 88.1574L50.0277 98.8911C50.7663 99.2047 51.2459 99.9295 51.2459 100.732V225.775C51.2459 226.879 50.3505 227.775 49.2459 227.775H34.8036C34.2359 227.775 33.695 227.533 33.3156 227.111L22.4827 215.049C22.1531 214.682 21.9707 214.206 21.9707 213.713V89.9983Z" fill="white" fill-opacity="0.4"/>
<path d="M8 161.262C8 178.356 44.4888 192.214 89.5 192.214C134.511 192.214 171 178.356 171 161.262" stroke="#6499F5" stroke-width="5"/>
<path d="M8 117.928C8 135.023 44.4888 148.881 89.5 148.881C134.511 148.881 171 135.023 171 117.928" stroke="#6499F5" stroke-width="5"/>
<path d="M34.3906 94.5793C48.8066 99.4755 67.8376 102.452 88.6994 102.452C133.711 102.452 170.199 88.5945 170.199 71.5" stroke="#6499F5" stroke-width="5" stroke-linecap="round"/>
<path d="M8 197.631C8 217.717 44.4888 234 89.5 234C134.511 234 171 217.717 171 197.631" stroke="#6499F5" stroke-width="5"/>
</svg>
