<svg width="111" height="132" viewBox="0 0 111 132" fill="none" xmlns="http://www.w3.org/2000/svg">
<g id="db-icon">
<g id="Group 14">
<g id="Combined Shape">
<path fill-rule="evenodd" clip-rule="evenodd" d="M107.988 27C107.996 26.8338 108 26.6671 108 26.5C108 13.5213 84.4949 3 55.5 3C26.5051 3 3 13.5213 3 26.5C3 26.6671 3.0039 26.8338 3.01165 27H3V105H3.01165C3.0039 105.166 3 105.333 3 105.5C3 118.479 26.5051 129 55.5 129C84.4949 129 108 118.479 108 105.5C108 105.333 107.996 105.166 107.988 105H108V27H107.988Z" fill="#AEC8F9"/>
<path d="M107.988 27L105.491 26.8836L105.369 29.5H107.988V27ZM3.01165 27V29.5H5.63094L5.50893 26.8836L3.01165 27ZM3 27V24.5H0.5V27H3ZM3 105H0.5V107.5H3V105ZM3.01165 105L5.50893 105.116L5.63094 102.5H3.01165V105ZM107.988 105V102.5H105.369L105.491 105.116L107.988 105ZM108 105V107.5H110.5V105H108ZM108 27H110.5V24.5H108V27ZM105.5 26.5C105.5 26.6282 105.497 26.756 105.491 26.8836L110.486 27.1164C110.495 26.9115 110.5 26.706 110.5 26.5H105.5ZM55.5 5.5C69.7293 5.5 82.491 8.08669 91.6017 12.1648C96.16 14.2052 99.695 16.5699 102.057 19.0698C104.407 21.5564 105.5 24.0627 105.5 26.5H110.5C110.5 22.448 108.655 18.7721 105.691 15.6357C102.74 12.5126 98.5869 9.81345 93.6445 7.60116C83.754 3.17397 70.2657 0.5 55.5 0.5V5.5ZM5.5 26.5C5.5 24.0627 6.59318 21.5564 8.94281 19.0698C11.305 16.5699 14.84 14.2052 19.3983 12.1648C28.509 8.08669 41.2707 5.5 55.5 5.5V0.5C40.7343 0.5 27.246 3.17397 17.3555 7.60116C12.4131 9.81345 8.25976 12.5126 5.30861 15.6357C2.34496 18.7721 0.5 22.448 0.5 26.5H5.5ZM5.50893 26.8836C5.50299 26.7561 5.5 26.6282 5.5 26.5H0.5C0.5 26.706 0.504802 26.9114 0.514361 27.1164L5.50893 26.8836ZM3 29.5H3.01165V24.5H3V29.5ZM5.5 105V27H0.5V105H5.5ZM3.01165 102.5H3V107.5H3.01165V102.5ZM5.5 105.5C5.5 105.372 5.50299 105.244 5.50893 105.116L0.514361 104.884C0.504802 105.089 0.5 105.294 0.5 105.5H5.5ZM55.5 126.5C41.2707 126.5 28.509 123.913 19.3983 119.835C14.84 117.795 11.305 115.43 8.94281 112.93C6.59318 110.444 5.5 107.937 5.5 105.5H0.5C0.5 109.552 2.34496 113.228 5.30861 116.364C8.25976 119.487 12.4131 122.187 17.3555 124.399C27.246 128.826 40.7343 131.5 55.5 131.5V126.5ZM105.5 105.5C105.5 107.937 104.407 110.444 102.057 112.93C99.695 115.43 96.16 117.795 91.6017 119.835C82.491 123.913 69.7293 126.5 55.5 126.5V131.5C70.2657 131.5 83.754 128.826 93.6445 124.399C98.5869 122.187 102.74 119.487 105.691 116.364C108.655 113.228 110.5 109.552 110.5 105.5H105.5ZM105.491 105.116C105.497 105.244 105.5 105.372 105.5 105.5H110.5C110.5 105.294 110.495 105.089 110.486 104.884L105.491 105.116ZM108 102.5H107.988V107.5H108V102.5ZM105.5 27V105H110.5V27H105.5ZM107.988 29.5H108V24.5H107.988V29.5Z" fill="#6499F5"/>
</g>
<path id="Path" d="M39.9434 88.1074C44.8591 88.6875 50.0838 89 55.5002 89C61.44 89 67.1495 88.6242 72.4737 87.9316" stroke="#6499F5" stroke-width="6" stroke-linecap="round" stroke-dasharray="2 10"/>
<path id="Rectangle" fill-rule="evenodd" clip-rule="evenodd" d="M12 34L30.8583 42.0332V124.978L12 116.387V34Z" fill="white" fill-opacity="0.4"/>
<path id="Path_2" d="M3 82C3 93.0457 26.5051 102 55.5 102C84.4949 102 108 93.0457 108 82" stroke="#6499F5" stroke-width="5"/>
<path id="Path Copy" d="M3 54C3 65.0457 26.5051 74 55.5 74C84.4949 74 108 65.0457 108 54" stroke="#6499F5" stroke-width="5"/>
<path id="Path_3" d="M20 38.9128C29.2863 42.0765 41.5456 44 54.9842 44C83.9791 44 107.484 35.0457 107.484 24" stroke="#6499F5" stroke-width="5" stroke-linecap="round"/>
<path id="Path_4" d="M3 105.5C3 118.479 26.5051 129 55.5 129C84.4949 129 108 118.479 108 105.5" stroke="#6499F5" stroke-width="5"/>
</g>
</g>
</svg>
