<svg width="809" height="637" viewBox="0 0 809 637" fill="none" xmlns="http://www.w3.org/2000/svg">
<path d="M776 73H797C802.523 73 807 77.4772 807 83V145C807 150.523 802.523 155 797 155H776" stroke="#C1C4CB" stroke-width="4"/>
<path d="M658 155H611C605.477 155 601 159.477 601 165V227C601 232.523 605.477 237 611 237H658" stroke="#C1C4CB" stroke-width="4"/>
<mask id="path-5-inside-1" fill="white">
<rect x="658" y="215" width="124" height="46" rx="4"/>
</mask>
<rect x="658" y="215" width="124" height="46" rx="4" fill="white" stroke="#9DA1A9" stroke-width="10" mask="url(#path-5-inside-1)"/>
<rect x="692" y="231" width="57" height="11" rx="5.5" fill="#C1C4CB"/>
<mask id="path-8-inside-2" fill="white">
<rect x="658" y="131" width="124" height="46" rx="4"/>
</mask>
<rect x="658" y="131" width="124" height="46" rx="4" fill="white" stroke="#9DA1A9" stroke-width="10" mask="url(#path-8-inside-2)"/>
<rect x="692" y="147" width="57" height="11" rx="5.5" fill="#C1C4CB"/>
<mask id="path-11-inside-3" fill="white">
<rect x="658" y="51" width="124" height="46" rx="4"/>
</mask>
<rect x="658" y="51" width="124" height="46" rx="4" fill="white" stroke="#9DA1A9" stroke-width="10" mask="url(#path-11-inside-3)"/>
<rect x="692" y="67" width="57" height="11" rx="5.5" fill="#C1C4CB"/>
<mask id="path-14-inside-4" fill="white">
<rect x="769" y="63" width="20" height="20" rx="3"/>
</mask>
<rect x="769" y="63" width="20" height="20" rx="3" fill="#C1C4CB" stroke="#9DA1A9" stroke-width="8" mask="url(#path-14-inside-4)"/>
<mask id="path-16-inside-5" fill="white">
<rect x="769" y="144" width="20" height="20" rx="3"/>
</mask>
<rect x="769" y="144" width="20" height="20" rx="3" fill="#C1C4CB" stroke="#9DA1A9" stroke-width="8" mask="url(#path-16-inside-5)"/>
<mask id="path-18-inside-6" fill="white">
<rect x="648" y="144" width="20" height="20" rx="3"/>
</mask>
<rect x="648" y="144" width="20" height="20" rx="3" fill="#C1C4CB" stroke="#9DA1A9" stroke-width="8" mask="url(#path-18-inside-6)"/>
<mask id="path-20-inside-7" fill="white">
<rect x="651" y="228" width="20" height="20" rx="3"/>
</mask>
<rect x="651" y="228" width="20" height="20" rx="3" fill="#C1C4CB" stroke="#9DA1A9" stroke-width="8" mask="url(#path-20-inside-7)"/>
<mask id="path-22-inside-8" fill="white">
<rect x="495" y="171" width="124" height="46" rx="4"/>
</mask>
<rect x="495" y="171" width="124" height="46" rx="4" fill="white" stroke="#9DA1A9" stroke-width="10" mask="url(#path-22-inside-8)"/>
<rect x="529" y="187" width="57" height="11" rx="5.5" fill="#C1C4CB"/>
<mask id="path-25-inside-9" fill="white">
<rect x="590" y="164" width="20" height="20" rx="3"/>
</mask>
<rect x="590" y="164" width="20" height="20" rx="3" fill="#C1C4CB" stroke="#9DA1A9" stroke-width="8" mask="url(#path-25-inside-9)"/>
<mask id="path-27-inside-10" fill="white">
<rect x="590" y="207" width="20" height="20" rx="3"/>
</mask>
<rect x="590" y="207" width="20" height="20" rx="3" fill="#C1C4CB" stroke="#9DA1A9" stroke-width="8" mask="url(#path-27-inside-10)"/>
<rect x="529" y="187" width="57" height="11" rx="5.5" fill="#6499F5"/>
<path fill-rule="evenodd" clip-rule="evenodd" d="M48.049 4.11415C48.7939 3.39922 49.7863 3 50.8188 3H309C311.209 3 313 4.79086 313 7V234C313 236.209 311.209 238 309 238H8C5.79086 238 4 236.209 4 234V48.0971C4 47.0078 4.44428 45.9656 5.23019 45.2112L48.049 4.11415Z" fill="white" stroke="#9DA1A9" stroke-width="5"/>
<path d="M52 13V40.6704C52 44.4274 48.1374 47.473 43.3726 47.473H7" stroke="#9DA1A9" stroke-width="5" stroke-linecap="round"/>
<rect x="25" y="67" width="57" height="10" rx="5" fill="#C1C4CB"/>
<rect x="154.066" y="144.601" width="100" height="6" rx="3" transform="rotate(160 154.066 144.601)" fill="#C1C4CB"/>
<rect x="73.6026" y="198.364" width="32" height="51" rx="3.5" transform="rotate(160 73.6026 198.364)" fill="#DFE1E4" stroke="#9DA1A9" stroke-width="4"/>
<rect x="113.069" y="183.999" width="32" height="51" rx="3.5" transform="rotate(160 113.069 183.999)" fill="#DFE1E4" stroke="#9DA1A9" stroke-width="4"/>
<rect x="152.536" y="169.634" width="32" height="51" rx="3.5" transform="rotate(160 152.536 169.634)" fill="#DFE1E4" stroke="#9DA1A9" stroke-width="4"/>
<rect x="146.492" y="101.422" width="12" height="55" rx="5.5" transform="rotate(-20 146.492 101.422)" fill="#DFE1E4"/>
<rect x="168.545" y="132.771" width="100" height="6" rx="3" transform="rotate(-20 168.545 132.771)" fill="#C1C4CB"/>
<rect x="249.009" y="79.0076" width="32" height="51" rx="3.5" transform="rotate(-20 249.009 79.0076)" fill="#DFE1E4" stroke="#9DA1A9" stroke-width="4"/>
<rect x="209.542" y="93.3723" width="32" height="51" rx="3.5" transform="rotate(-20 209.542 93.3723)" fill="#DFE1E4" stroke="#9DA1A9" stroke-width="4"/>
<rect x="170.075" y="107.737" width="32" height="51" rx="3.5" transform="rotate(-20 170.075 107.737)" fill="#DFE1E4" stroke="#9DA1A9" stroke-width="4"/>
<rect x="139.659" y="106.038" width="18" height="51" rx="3.5" transform="rotate(-20 139.659 106.038)" stroke="#9DA1A9" stroke-width="4"/>
<path d="M140.411 80.3296L136.432 69.3957" stroke="#9DA1A9" stroke-width="4" stroke-linecap="round"/>
<path fill-rule="evenodd" clip-rule="evenodd" d="M144.697 93.5625C157.671 88.8402 166.806 77.6095 166.806 77.6095C166.806 77.6095 155.62 82.5957 142.646 87.318C129.671 92.0403 117.189 95.3467 117.189 95.3467C117.189 95.3467 131.722 98.2848 144.697 93.5625Z" fill="#DFE1E4"/>
<path fill-rule="evenodd" clip-rule="evenodd" d="M118.565 94.5346L118.571 94.4518C118.896 91.4755 127.678 86.038 139.336 81.6834L140.682 81.1901L141.607 80.8618C153.139 76.8271 163.126 75.4086 165.274 77.445C165.376 77.4319 165.435 77.4482 165.452 77.4943C165.488 77.5924 165.519 77.6917 165.545 77.7924C165.576 77.8474 165.602 77.9048 165.623 77.9642C165.715 78.215 165.723 78.4912 165.654 78.7895C165.518 83.4208 157.093 90.0229 145.492 94.3352L145.038 94.502C133.204 98.8094 122.267 99.2226 119.146 95.7174C118.901 95.5331 118.73 95.316 118.639 95.0652C118.617 95.0059 118.6 94.9451 118.588 94.883C118.543 94.7894 118.503 94.6934 118.468 94.5953C118.462 94.58 118.494 94.5598 118.565 94.5346Z" stroke="#9DA1A9" stroke-width="4" stroke-linejoin="round"/>
<path d="M161.859 131.627L166.138 143.383" stroke="#9DA1A9" stroke-width="4" stroke-linecap="round" stroke-dasharray="6 6"/>
<rect x="248.864" y="79.7517" width="32" height="51" rx="3.5" transform="rotate(-20 248.864 79.7517)" fill="#AEC8F9" stroke="#6499F5" stroke-width="4"/>
<rect x="25" y="89" width="42" height="10" rx="5" fill="#C1C4CB"/>
<rect x="25" y="111" width="50" height="10" rx="5" fill="#C1C4CB"/>
<path fill-rule="evenodd" clip-rule="evenodd" d="M181.114 369.049C180.399 369.794 180 370.786 180 371.819L180 630C180 632.209 181.791 634 184 634H411C413.209 634 415 632.209 415 630L415 329C415 326.791 413.209 325 411 325L225.097 325C224.008 325 222.966 325.444 222.211 326.23L181.114 369.049Z" fill="white" stroke="#9DA1A9" stroke-width="5"/>
<path d="M227 337V364.67C227 368.427 223.137 371.473 218.373 371.473H182" stroke="#9DA1A9" stroke-width="5" stroke-linecap="round"/>
<path fill-rule="evenodd" clip-rule="evenodd" d="M308 424.5C308 421.462 310.462 419 313.5 419H346.5C349.538 419 352 421.462 352 424.5C352 427.538 349.538 430 346.5 430H313.5C310.462 430 308 427.538 308 424.5Z" fill="#C1C4CB"/>
<path fill-rule="evenodd" clip-rule="evenodd" d="M308 401C308 398.239 310.239 396 313 396H362C364.761 396 367 398.239 367 401C367 403.761 364.761 406 362 406H313C310.239 406 308 403.761 308 401Z" fill="#C1C4CB"/>
<path fill-rule="evenodd" clip-rule="evenodd" d="M233 485C233 482.239 235.239 480 238 480H362C364.761 480 367 482.239 367 485C367 487.761 364.761 490 362 490H238C235.239 490 233 487.761 233 485Z" fill="#C1C4CB"/>
<path fill-rule="evenodd" clip-rule="evenodd" d="M233 562C233 559.239 235.239 557 238 557H322C324.761 557 327 559.239 327 562C327 564.761 324.761 567 322 567H238C235.239 567 233 564.761 233 562Z" fill="#C1C4CB"/>
<path fill-rule="evenodd" clip-rule="evenodd" d="M233 507C233 504.239 235.239 502 238 502H329C331.761 502 334 504.239 334 507C334 509.761 331.761 512 329 512H238C235.239 512 233 509.761 233 507Z" fill="#C1C4CB"/>
<rect x="233" y="458" width="134" height="10" rx="5" fill="#C1C4CB"/>
<rect x="231" y="373" width="57" height="57" rx="3.5" fill="#DFE1E4"/>
<path fill-rule="evenodd" clip-rule="evenodd" d="M231.328 415.912L250.036 404.511L267.282 410.384L288 391V426C288 428.209 286.209 430 284 430H235C232.791 430 231 428.209 231 426V416.076" fill="#C1C4CB"/>
<rect x="233" y="535" width="134" height="10" rx="5" fill="#C1C4CB"/>
<rect x="308" y="373" width="47" height="11" rx="5.5" fill="#6499F5"/>
<path d="M542.074 156.804C543.006 158.807 545.386 159.675 547.388 158.743C549.391 157.811 550.26 155.432 549.328 153.429L542.074 156.804ZM307.338 84.3373C305.482 85.5363 304.95 88.0124 306.149 89.8679C307.348 91.7233 309.824 92.2555 311.68 91.0565L307.338 84.3373ZM259.458 149.22C260.512 147.279 259.792 144.851 257.85 143.797C255.909 142.743 253.481 143.463 252.427 145.405L259.458 149.22ZM298.154 354.966C299.92 356.293 302.428 355.937 303.754 354.17C305.081 352.404 304.724 349.896 302.958 348.57L298.154 354.966ZM388.279 382.458C386.074 382.315 384.171 383.986 384.028 386.19C383.885 388.395 385.556 390.298 387.761 390.441L388.279 382.458ZM565.009 235.533C565.159 233.329 563.493 231.421 561.289 231.272C559.085 231.123 557.177 232.788 557.027 234.992L565.009 235.533ZM317.032 87.747C318.934 86.6228 319.564 84.1698 318.44 82.2681C317.315 80.3664 314.862 79.7362 312.961 80.8604L317.032 87.747ZM328.276 72.85C326.268 73.7707 325.387 76.145 326.308 78.1532C327.228 80.1613 329.603 81.0428 331.611 80.122L328.276 72.85ZM343.249 75.3342C345.324 74.5752 346.391 72.278 345.632 70.2034C344.873 68.1287 342.576 67.0622 340.501 67.8212L343.249 75.3342ZM357.011 62.7262C354.87 63.2689 353.573 65.4448 354.116 67.5862C354.659 69.7277 356.835 71.0238 358.976 70.4811L357.011 62.7262ZM371.597 67.8109C373.775 67.4398 375.239 65.3735 374.868 63.1958C374.497 61.018 372.431 59.5535 370.253 59.9246L371.597 67.8109ZM388.255 57.8429C386.05 57.978 384.372 59.875 384.507 62.08C384.642 64.285 386.539 65.963 388.744 65.8279L388.255 57.8429ZM401.935 65.5681C404.144 65.6165 405.974 63.8652 406.022 61.6566C406.07 59.448 404.319 57.6184 402.111 57.57L401.935 65.5681ZM420.177 58.953C417.987 58.6646 415.977 60.2063 415.689 62.3965C415.4 64.5867 416.942 66.5961 419.132 66.8845L420.177 58.953ZM432.131 69.1512C434.289 69.6211 436.42 68.2522 436.89 66.0936C437.36 63.935 435.991 61.8042 433.832 61.3343L432.131 69.1512ZM451.304 66.1465C449.209 65.4451 446.943 66.5746 446.241 68.6694C445.54 70.7642 446.669 73.031 448.764 73.7325L451.304 66.1465ZM461.092 78.4379C463.122 79.3106 465.474 78.3727 466.347 76.3432C467.219 74.3137 466.282 71.9611 464.252 71.0885L461.092 78.4379ZM480.486 79.1355C478.562 78.0488 476.122 78.7269 475.035 80.6503C473.949 82.5736 474.627 85.0138 476.55 86.1006L480.486 79.1355ZM487.761 93.0623C489.588 94.3043 492.076 93.8302 493.318 92.0033C494.56 90.1764 494.086 87.6885 492.259 86.4465L487.761 93.0623ZM506.67 97.4312C504.988 95.9987 502.464 96.2006 501.031 97.8823C499.599 99.564 499.801 102.089 501.482 103.521L506.67 97.4312ZM511.162 112.488C512.718 114.055 515.251 114.064 516.819 112.508C518.386 110.951 518.395 108.418 516.838 106.851L511.162 112.488ZM528.886 120.389C527.51 118.661 524.994 118.375 523.265 119.751C521.537 121.127 521.252 123.644 522.628 125.372L528.886 120.389ZM530.402 136.028C531.628 137.865 534.112 138.362 535.949 137.136C537.787 135.91 538.283 133.427 537.058 131.589L530.402 136.028ZM546.27 147.205C545.254 145.243 542.841 144.476 540.879 145.492C538.917 146.507 538.15 148.921 539.166 150.883L546.27 147.205ZM249.535 150.982C248.554 152.962 249.365 155.362 251.345 156.342C253.325 157.322 255.724 156.511 256.704 154.531L249.535 150.982ZM250.465 168.872C251.245 166.805 250.202 164.497 248.135 163.717C246.069 162.937 243.761 163.98 242.981 166.047L250.465 168.872ZM238.992 177.965C238.372 180.085 239.587 182.307 241.707 182.928C243.828 183.549 246.05 182.333 246.67 180.213L238.992 177.965ZM243.035 195.417C243.44 193.245 242.008 191.156 239.836 190.751C237.665 190.346 235.576 191.778 235.171 193.949L243.035 195.417ZM233.343 206.388C233.106 208.585 234.695 210.557 236.892 210.794C239.088 211.03 241.06 209.441 241.297 207.245L233.343 206.388ZM240.412 222.847C240.425 220.638 238.645 218.837 236.436 218.823C234.227 218.81 232.426 220.59 232.412 222.799L240.412 222.847ZM232.823 235.366C232.98 237.569 234.894 239.228 237.098 239.071C239.301 238.913 240.96 237 240.803 234.796L232.823 235.366ZM242.697 250.312C242.32 248.136 240.25 246.677 238.073 247.054C235.897 247.431 234.438 249.501 234.815 251.678L242.697 250.312ZM237.452 264.067C237.994 266.208 240.17 267.505 242.311 266.963C244.453 266.421 245.749 264.245 245.207 262.104L237.452 264.067ZM249.878 277.271C249.121 275.195 246.825 274.126 244.749 274.883C242.674 275.64 241.605 277.936 242.362 280.012L249.878 277.271ZM247.203 291.824C248.12 293.833 250.493 294.719 252.502 293.801C254.512 292.884 255.398 290.511 254.48 288.502L247.203 291.824ZM261.802 302.578C260.683 300.673 258.232 300.035 256.327 301.154C254.422 302.273 253.784 304.724 254.903 306.629L261.802 302.578ZM261.794 317.374C263.058 319.185 265.551 319.629 267.363 318.364C269.174 317.1 269.618 314.606 268.354 312.795L261.794 317.374ZM278.089 325.33C276.647 323.656 274.121 323.468 272.447 324.91C270.774 326.352 270.586 328.878 272.028 330.551L278.089 325.33ZM280.724 339.889C282.29 341.446 284.823 341.439 286.38 339.872C287.938 338.305 287.93 335.772 286.363 334.215L280.724 339.889ZM298.172 344.83C296.457 343.437 293.938 343.698 292.545 345.413C291.152 347.127 291.413 349.646 293.127 351.039L298.172 344.83ZM397.685 390.786C399.895 390.797 401.694 389.015 401.705 386.805C401.715 384.596 399.933 382.797 397.724 382.786L397.685 390.786ZM422.359 380.979C420.175 381.311 418.673 383.351 419.005 385.535C419.337 387.719 421.377 389.22 423.561 388.888L422.359 380.979ZM439.82 385.595C441.961 385.051 443.256 382.875 442.712 380.734C442.168 378.592 439.992 377.298 437.85 377.841L439.82 385.595ZM453.712 372.924C451.639 373.687 450.577 375.987 451.34 378.06C452.104 380.133 454.403 381.195 456.476 380.431L453.712 372.924ZM468.796 375.326C470.801 374.398 471.675 372.021 470.748 370.016C469.821 368.011 467.444 367.137 465.439 368.064L468.796 375.326ZM480.113 360.317C478.216 361.45 477.597 363.906 478.73 365.802C479.863 367.699 482.318 368.318 484.215 367.185L480.113 360.317ZM495.381 359.89C497.181 358.608 497.6 356.11 496.318 354.311C495.036 352.512 492.539 352.092 490.74 353.374L495.381 359.89ZM503.734 343.046C502.079 344.509 501.924 347.037 503.387 348.692C504.851 350.347 507.378 350.502 509.033 349.039L503.734 343.046ZM518.662 339.812C520.195 338.222 520.148 335.689 518.557 334.157C516.966 332.624 514.433 332.671 512.901 334.262L518.662 339.812ZM523.779 321.723C522.42 323.465 522.731 325.978 524.473 327.337C526.214 328.696 528.728 328.385 530.087 326.643L523.779 321.723ZM537.863 315.811C539.079 313.967 538.57 311.486 536.725 310.27C534.881 309.054 532.4 309.564 531.184 311.408L537.863 315.811ZM539.588 297.091C538.571 299.052 539.335 301.466 541.296 302.484C543.257 303.502 545.671 302.737 546.689 300.776L539.588 297.091ZM552.355 288.705C553.213 286.669 552.259 284.323 550.223 283.465C548.187 282.607 545.841 283.562 544.983 285.597L552.355 288.705ZM550.621 269.986C549.981 272.1 551.176 274.334 553.29 274.974C555.404 275.615 557.637 274.42 558.278 272.306L550.621 269.986ZM561.629 259.396C562.097 257.237 560.727 255.107 558.568 254.639C556.409 254.17 554.279 255.541 553.811 257.699L561.629 259.396ZM556.47 241.316C556.232 243.512 557.819 245.486 560.015 245.724C562.211 245.962 564.185 244.375 564.423 242.179L556.47 241.316ZM311.68 91.0565C313.438 89.9203 315.222 88.8168 317.032 87.747L312.961 80.8604C311.06 81.9843 309.185 83.1436 307.338 84.3373L311.68 91.0565ZM331.611 80.122C335.402 78.3839 339.283 76.7853 343.249 75.3342L340.501 67.8212C336.335 69.3451 332.259 71.0241 328.276 72.85L331.611 80.122ZM358.976 70.4811C361.002 69.9677 363.047 69.4913 365.11 69.0528L363.446 61.2277C361.283 61.6876 359.137 62.1874 357.011 62.7262L358.976 70.4811ZM365.11 69.0528C367.274 68.5929 369.436 68.1791 371.597 67.8109L370.253 59.9246C367.986 60.311 365.716 60.7452 363.446 61.2277L365.11 69.0528ZM388.744 65.8279C393.165 65.5571 397.565 65.4724 401.935 65.5681L402.111 57.57C397.519 57.4695 392.897 57.5584 388.255 57.8429L388.744 65.8279ZM419.132 66.8845C423.512 67.4613 427.848 68.2189 432.131 69.1512L433.832 61.3343C429.333 60.3549 424.778 59.5589 420.177 58.953L419.132 66.8845ZM448.764 73.7325C452.944 75.1324 457.057 76.7031 461.092 78.4379L464.252 71.0885C460.015 69.2665 455.695 67.6169 451.304 66.1465L448.764 73.7325ZM476.55 86.1006C480.383 88.2662 484.123 90.589 487.761 93.0623L492.259 86.4465C488.439 83.849 484.511 81.4097 480.486 79.1355L476.55 86.1006ZM501.482 103.521C504.828 106.371 508.058 109.362 511.162 112.488L516.838 106.851C513.577 103.567 510.184 100.425 506.67 97.4312L501.482 103.521ZM522.628 125.372C525.359 128.803 527.954 132.357 530.402 136.028L537.058 131.589C534.484 127.73 531.757 123.995 528.886 120.389L522.628 125.372ZM539.166 150.883C540.174 152.831 541.144 154.805 542.074 156.804L549.328 153.429C548.35 151.327 547.33 149.252 546.27 147.205L539.166 150.883ZM252.427 145.405C251.428 147.246 250.464 149.105 249.535 150.982L256.704 154.531C257.589 152.744 258.507 150.973 259.458 149.22L252.427 145.405ZM242.981 166.047C241.503 169.962 240.172 173.938 238.992 177.965L246.67 180.213C247.792 176.381 249.059 172.598 250.465 168.872L242.981 166.047ZM235.171 193.949C234.404 198.057 233.793 202.206 233.343 206.388L241.297 207.245C241.725 203.268 242.306 199.323 243.035 195.417L235.171 193.949ZM232.412 222.799C232.387 226.968 232.523 231.159 232.823 235.366L240.803 234.796C240.517 230.796 240.388 226.811 240.412 222.847L232.412 222.799ZM234.815 251.678C235.171 253.734 235.568 255.792 236.005 257.85L243.83 256.187C243.414 254.228 243.036 252.269 242.697 250.312L234.815 251.678ZM236.005 257.85C236.449 259.94 236.932 262.013 237.452 264.067L245.207 262.104C244.712 260.149 244.253 258.177 243.83 256.187L236.005 257.85ZM242.362 280.012C243.829 284.034 245.445 287.973 247.203 291.824L254.48 288.502C252.809 284.841 251.273 281.096 249.878 277.271L242.362 280.012ZM254.903 306.629C257.066 310.311 259.365 313.895 261.794 317.374L268.354 312.795C266.044 309.487 263.858 306.079 261.802 302.578L254.903 306.629ZM272.028 330.551C274.809 333.779 277.71 336.893 280.724 339.889L286.363 334.215C283.495 331.364 280.735 328.401 278.089 325.33L272.028 330.551ZM293.127 351.039C294.778 352.38 296.453 353.689 298.154 354.966L302.958 348.57C301.339 347.354 299.743 346.107 298.172 344.83L293.127 351.039ZM387.761 390.441C391.052 390.654 394.361 390.77 397.685 390.786L397.724 382.786C394.56 382.771 391.411 382.661 388.279 382.458L387.761 390.441ZM423.561 388.888C426.812 388.394 430.068 387.802 433.326 387.11L431.662 379.284C428.558 379.944 425.455 380.508 422.359 380.979L423.561 388.888ZM433.326 387.11C435.509 386.645 437.674 386.14 439.82 385.595L437.85 377.841C435.807 378.361 433.744 378.842 431.662 379.284L433.326 387.11ZM456.476 380.431C460.676 378.885 464.784 377.18 468.796 375.326L465.439 368.064C461.62 369.829 457.71 371.452 453.712 372.924L456.476 380.431ZM484.215 367.185C488.048 364.896 491.772 362.461 495.381 359.89L490.74 353.374C487.305 355.821 483.761 358.138 480.113 360.317L484.215 367.185ZM509.033 349.039C512.371 346.088 515.583 343.009 518.662 339.812L512.901 334.262C509.969 337.305 506.911 340.236 503.734 343.046L509.033 349.039ZM530.087 326.643C532.823 323.136 535.417 319.522 537.863 315.811L531.184 311.408C528.855 314.942 526.384 318.383 523.779 321.723L530.087 326.643ZM546.689 300.776C548.735 296.834 550.626 292.806 552.355 288.705L544.983 285.597C543.337 289.502 541.537 293.337 539.588 297.091L546.689 300.776ZM558.278 272.306C559.564 268.061 560.683 263.754 561.629 259.396L553.811 257.699C552.91 261.847 551.846 265.946 550.621 269.986L558.278 272.306ZM564.423 242.179C564.663 239.973 564.858 237.758 565.009 235.533L557.027 234.992C556.884 237.109 556.698 239.217 556.47 241.316L564.423 242.179Z" fill="#6499F5"/>
</svg>
