<svg width="1660" height="1298" viewBox="0 0 1660 1298" fill="none" xmlns="http://www.w3.org/2000/svg">
<g id="linked-data-document">
<g clip-path="url(#clip0)">
<g id="model">
<g id="Group 13">
<g id="Group 12">
<path id="Rectangle 14" d="M1552 146H1594C1605.05 146 1614 154.954 1614 166V290C1614 301.046 1605.05 310 1594 310H1552" stroke="#C1C4CB" stroke-width="4"/>
<path id="Rectangle 14 Copy" d="M1316 310H1222C1210.95 310 1202 318.954 1202 330V454C1202 465.046 1210.95 474 1222 474H1316" stroke="#C1C4CB" stroke-width="4"/>
<g id="Group 2">
<g id="model-node">
<g id="Rectangle 6 Copy">
<mask id="path-6-inside-1" fill="white">
<rect x="1316" y="430" width="248" height="92" rx="4"/>
</mask>
<rect x="1316" y="430" width="248" height="92" rx="4" fill="white" stroke="#9DA1A9" stroke-width="10" mask="url(#path-6-inside-1)"/>
</g>
<rect id="Rectangle 4 Copy 3" x="1384" y="462" width="114" height="22" rx="5.5" fill="#C1C4CB"/>
</g>
<g id="model-node copy">
<g id="Rectangle 6 Copy_2">
<mask id="path-9-inside-2" fill="white">
<rect x="1316" y="262" width="248" height="92" rx="4"/>
</mask>
<rect x="1316" y="262" width="248" height="92" rx="4" fill="white" stroke="#9DA1A9" stroke-width="10" mask="url(#path-9-inside-2)"/>
</g>
<rect id="Rectangle 4 Copy 3_2" x="1384" y="294" width="114" height="22" rx="5.5" fill="#C1C4CB"/>
</g>
<g id="model-node copy 2">
<g id="Rectangle 6 Copy_3">
<mask id="path-12-inside-3" fill="white">
<rect x="1316" y="102" width="248" height="92" rx="4"/>
</mask>
<rect x="1316" y="102" width="248" height="92" rx="4" fill="white" stroke="#9DA1A9" stroke-width="10" mask="url(#path-12-inside-3)"/>
</g>
<rect id="Rectangle 4 Copy 3_3" x="1384" y="134" width="114" height="22" rx="5.5" fill="#C1C4CB"/>
</g>
<g id="connection">
<g id="Rectangle 2">
<mask id="path-15-inside-4" fill="white">
<rect x="1538" y="126" width="40" height="40" rx="3"/>
</mask>
<rect x="1538" y="126" width="40" height="40" rx="3" fill="#C1C4CB" stroke="#9DA1A9" stroke-width="8" mask="url(#path-15-inside-4)"/>
</g>
</g>
<g id="connection copy">
<g id="Rectangle 2_2">
<mask id="path-17-inside-5" fill="white">
<rect x="1538" y="288" width="40" height="40" rx="3"/>
</mask>
<rect x="1538" y="288" width="40" height="40" rx="3" fill="#C1C4CB" stroke="#9DA1A9" stroke-width="8" mask="url(#path-17-inside-5)"/>
</g>
</g>
<g id="connection copy 2">
<g id="Rectangle 2_3">
<mask id="path-19-inside-6" fill="white">
<rect x="1296" y="288" width="40" height="40" rx="3"/>
</mask>
<rect x="1296" y="288" width="40" height="40" rx="3" fill="#C1C4CB" stroke="#9DA1A9" stroke-width="8" mask="url(#path-19-inside-6)"/>
</g>
</g>
<g id="connection copy 3">
<g id="Rectangle 2_4">
<mask id="path-21-inside-7" fill="white">
<rect x="1302" y="456" width="40" height="40" rx="3"/>
</mask>
<rect x="1302" y="456" width="40" height="40" rx="3" fill="#C1C4CB" stroke="#9DA1A9" stroke-width="8" mask="url(#path-21-inside-7)"/>
</g>
</g>
</g>
<g id="model-node copy 3">
<g id="Rectangle 6 Copy_4">
<mask id="path-23-inside-8" fill="white">
<rect x="990" y="342" width="248" height="92" rx="4"/>
</mask>
<rect x="990" y="342" width="248" height="92" rx="4" fill="white" stroke="#9DA1A9" stroke-width="10" mask="url(#path-23-inside-8)"/>
</g>
<rect id="Rectangle 4 Copy 3_4" x="1058" y="374" width="114" height="22" rx="5.5" fill="#C1C4CB"/>
</g>
<g id="connection copy 4">
<g id="Rectangle 2_5">
<mask id="path-26-inside-9" fill="white">
<rect x="1180" y="328" width="40" height="40" rx="3"/>
</mask>
<rect x="1180" y="328" width="40" height="40" rx="3" fill="#C1C4CB" stroke="#9DA1A9" stroke-width="8" mask="url(#path-26-inside-9)"/>
</g>
</g>
<g id="connection copy 5">
<g id="Rectangle 2_6">
<mask id="path-28-inside-10" fill="white">
<rect x="1180" y="414" width="40" height="40" rx="3"/>
</mask>
<rect x="1180" y="414" width="40" height="40" rx="3" fill="#C1C4CB" stroke="#9DA1A9" stroke-width="8" mask="url(#path-28-inside-10)"/>
</g>
</g>
</g>
<rect id="Rectangle 4 Copy 24" x="1058" y="374" width="114" height="22" rx="5.5" fill="#6499F5"/>
</g>
</g>
<g id="document">
<g id="FOLDY">
<path id="Rectangle" fill-rule="evenodd" clip-rule="evenodd" d="M372.228 730.098C370.798 731.588 370 733.573 370 735.638L370 1252C370 1256.42 373.582 1260 378 1260H832C836.418 1260 840 1256.42 840 1252L840 650C840 645.582 836.418 642 832 642L460.194 642C458.016 642 455.931 642.889 454.422 644.46L372.228 730.098Z" fill="white" stroke="#9DA1A9" stroke-width="5"/>
<g id="Rectangle 13 Copy 3">
<path id="Rectangle 13 Copy 2" d="M464 666V721.341C464 728.855 456.275 734.946 446.745 734.946H374" stroke="#9DA1A9" stroke-width="5" stroke-linecap="round"/>
</g>
</g>
<path id="Rectangle 2 Copy 19" fill-rule="evenodd" clip-rule="evenodd" d="M626 841C626 834.925 630.925 830 637 830H703C709.075 830 714 834.925 714 841V841C714 847.075 709.075 852 703 852H637C630.925 852 626 847.075 626 841V841Z" fill="#C1C4CB"/>
<path id="Rectangle 2 Copy 20" fill-rule="evenodd" clip-rule="evenodd" d="M626 794C626 788.477 630.477 784 636 784H734C739.523 784 744 788.477 744 794V794C744 799.523 739.523 804 734 804H636C630.477 804 626 799.523 626 794V794Z" fill="#C1C4CB"/>
<path id="Rectangle 2 Copy 24" fill-rule="evenodd" clip-rule="evenodd" d="M476 962C476 956.477 480.477 952 486 952H734C739.523 952 744 956.477 744 962V962C744 967.523 739.523 972 734 972H486C480.477 972 476 967.523 476 962V962Z" fill="#C1C4CB"/>
<path id="Rectangle 2 Copy 27" fill-rule="evenodd" clip-rule="evenodd" d="M476 1116C476 1110.48 480.477 1106 486 1106H654C659.523 1106 664 1110.48 664 1116V1116C664 1121.52 659.523 1126 654 1126H486C480.477 1126 476 1121.52 476 1116V1116Z" fill="#C1C4CB"/>
<path id="Rectangle 2 Copy 25" fill-rule="evenodd" clip-rule="evenodd" d="M476 1006C476 1000.48 480.477 996 486 996H668C673.523 996 678 1000.48 678 1006V1006C678 1011.52 673.523 1016 668 1016H486C480.477 1016 476 1011.52 476 1006V1006Z" fill="#C1C4CB"/>
<rect id="Rectangle 2 Copy 26" x="476" y="908" width="268" height="20" rx="5" fill="#C1C4CB"/>
<g id="Group 9">
<rect id="Rectangle 2 Copy 23" x="472" y="738" width="114" height="114" rx="3.5" fill="#DFE1E4"/>
<path id="Line" fill-rule="evenodd" clip-rule="evenodd" d="M472.656 823.824L510.073 801.021L544.564 812.767L586 774V844C586 848.418 582.418 852 578 852H480C475.582 852 472 848.418 472 844V824.152" fill="#C1C4CB"/>
</g>
<rect id="Rectangle 2 Copy 28" x="476" y="1062" width="268" height="20" rx="5" fill="#C1C4CB"/>
<rect id="Rectangle 4 Copy 25" x="626" y="738" width="94" height="22" rx="5.5" fill="#6499F5"/>
</g>
<g id="spacecraft">
<g id="Group 11">
<g id="FOLDY Copy">
<path id="Rectangle_2" fill-rule="evenodd" clip-rule="evenodd" d="M96.098 2.2283C97.5877 0.798441 99.5727 0 101.638 0H618C622.418 0 626 3.58172 626 8V462C626 466.418 622.418 470 618 470H16C11.5817 470 8 466.418 8 462V90.1942C8 88.0155 8.88855 85.9311 10.4604 84.4225L96.098 2.2283Z" fill="white" stroke="#9DA1A9" stroke-width="5"/>
<g id="Rectangle 13 Copy 2_2">
<path id="Rectangle 13 Copy 2_3" d="M104 20V75.3407C104 82.8547 96.2748 88.9461 86.7452 88.9461H14" stroke="#9DA1A9" stroke-width="5" stroke-linecap="round"/>
</g>
</g>
<g id="Group 5">
<rect id="Rectangle 2 Copy 32" x="50" y="128" width="114" height="20" rx="5" fill="#C1C4CB"/>
</g>
<g id="satellite">
<g id="Group 8">
<g id="Rectangle 2 Copy 30">
<rect id="Rectangle 2 Copy 33" x="308.133" y="283.203" width="200" height="12" rx="3" transform="rotate(160 308.133 283.203)" fill="#C1C4CB"/>
<rect id="Rectangle 2 Copy 31" x="149.769" y="391.924" width="68" height="106" rx="3.5" transform="rotate(160 149.769 391.924)" fill="#DFE1E4" stroke="#9DA1A9" stroke-width="4"/>
<rect id="Rectangle 2 Copy 32_2" x="228.702" y="363.194" width="68" height="106" rx="3.5" transform="rotate(160 228.702 363.194)" fill="#DFE1E4" stroke="#9DA1A9" stroke-width="4"/>
<rect id="Rectangle 2 Copy 34" x="307.636" y="334.464" width="68" height="106" rx="3.5" transform="rotate(160 307.636 334.464)" fill="#DFE1E4" stroke="#9DA1A9" stroke-width="4"/>
</g>
<rect id="Rectangle 2 Copy 21" x="292.984" y="196.844" width="24" height="110" rx="5.5" transform="rotate(-20 292.984 196.844)" fill="#DFE1E4"/>
<g id="Rectangle 2 Copy 31_2">
<rect id="Rectangle 2 Copy 33_2" x="337.09" y="259.541" width="200" height="12" rx="3" transform="rotate(-20 337.09 259.541)" fill="#C1C4CB"/>
<rect id="Rectangle 2 Copy 31_3" x="495.454" y="150.82" width="68" height="106" rx="3.5" transform="rotate(-20 495.454 150.82)" fill="#DFE1E4" stroke="#9DA1A9" stroke-width="4"/>
<rect id="Rectangle 2 Copy 32_3" x="416.52" y="179.549" width="68" height="106" rx="3.5" transform="rotate(-20 416.52 179.549)" fill="#DFE1E4" stroke="#9DA1A9" stroke-width="4"/>
<rect id="Rectangle 2 Copy 34_2" x="337.587" y="208.279" width="68" height="106" rx="3.5" transform="rotate(-20 337.587 208.279)" fill="#DFE1E4" stroke="#9DA1A9" stroke-width="4"/>
</g>
<rect id="Rectangle 2 Copy 21_2" x="276.755" y="204.88" width="40" height="106" rx="3.5" transform="rotate(-20 276.755 204.88)" stroke="#9DA1A9" stroke-width="4"/>
<path id="Line 9" d="M280.822 154.659L272.863 132.791" stroke="#9DA1A9" stroke-width="4" stroke-linecap="round"/>
<path id="Oval 4" fill-rule="evenodd" clip-rule="evenodd" d="M289.393 181.125C315.342 171.68 333.612 149.219 333.612 149.219C333.612 149.219 311.24 159.191 285.291 168.636C259.342 178.081 234.379 184.693 234.379 184.693C234.379 184.693 263.444 190.57 289.393 181.125Z" fill="#DFE1E4"/>
<path id="Path" fill-rule="evenodd" clip-rule="evenodd" d="M237.129 183.069L237.143 182.904C237.792 176.951 255.357 166.076 278.671 157.367L281.363 156.38L283.215 155.724C306.279 147.654 326.251 144.817 330.548 148.89C330.752 148.864 330.871 148.896 330.904 148.989C330.976 149.185 331.038 149.383 331.09 149.585C331.151 149.695 331.203 149.81 331.246 149.928C331.429 150.43 331.446 150.982 331.308 151.579C331.036 160.842 314.185 174.046 290.983 182.67L290.076 183.004C266.407 191.619 244.533 192.445 238.291 185.435C237.802 185.066 237.46 184.632 237.277 184.13C237.234 184.012 237.2 183.89 237.175 183.766C237.087 183.579 237.007 183.387 236.935 183.191C236.924 183.16 236.989 183.12 237.129 183.069Z" stroke="#9DA1A9" stroke-width="4" stroke-linejoin="round"/>
</g>
<path id="Line 10" d="M323.719 257.255L332.276 280.766" stroke="#9DA1A9" stroke-width="4" stroke-linecap="round" stroke-dasharray="6 6"/>
<rect id="Rectangle 2 Copy 31_4" x="495.165" y="152.308" width="68" height="106" rx="3.5" transform="rotate(-20 495.165 152.308)" fill="#AEC8F9" stroke="#6499F5" stroke-width="4"/>
</g>
<rect id="Rectangle 2 Copy 29" x="50" y="172" width="84" height="20" rx="5" fill="#C1C4CB"/>
<rect id="Rectangle 2 Copy 33_3" x="50" y="216" width="100" height="20" rx="5" fill="#C1C4CB"/>
</g>
</g>
<path id="Oval Copy" d="M1084.15 313.608C1086.01 317.614 1090.77 319.35 1094.78 317.486C1098.78 315.623 1100.52 310.864 1098.66 306.858L1084.15 313.608ZM614.676 168.675C610.965 171.073 609.9 176.025 612.298 179.736C614.696 183.447 619.649 184.511 623.359 182.113L614.676 168.675ZM518.917 298.441C521.024 294.558 519.584 289.701 515.701 287.594C511.818 285.487 506.961 286.926 504.854 290.81L518.917 298.441ZM596.307 709.933C599.84 712.586 604.855 711.873 607.508 708.34C610.162 704.808 609.449 699.793 605.916 697.139L596.307 709.933ZM776.558 764.915C772.148 764.629 768.342 767.972 768.056 772.381C767.771 776.79 771.113 780.596 775.522 780.882L776.558 764.915ZM1130.02 471.067C1130.32 466.659 1126.99 462.843 1122.58 462.544C1118.17 462.245 1114.35 465.576 1114.05 469.985L1130.02 471.067ZM634.064 175.494C637.867 173.246 639.128 168.34 636.879 164.536C634.631 160.733 629.725 159.472 625.921 161.721L634.064 175.494ZM656.553 145.7C652.537 147.541 650.774 152.29 652.615 156.306C654.457 160.323 659.205 162.086 663.222 160.244L656.553 145.7ZM686.499 150.668C690.648 149.15 692.781 144.556 691.263 140.407C689.745 136.257 685.151 134.124 681.002 135.642L686.499 150.668ZM714.022 125.452C709.739 126.538 707.147 130.89 708.232 135.172C709.317 139.455 713.669 142.048 717.952 140.962L714.022 125.452ZM743.194 135.622C747.549 134.88 750.478 130.747 749.736 126.392C748.994 122.036 744.861 119.107 740.506 119.849L743.194 135.622ZM776.509 115.686C772.099 115.956 768.743 119.75 769.013 124.16C769.283 128.57 773.078 131.926 777.488 131.656L776.509 115.686ZM803.871 131.136C808.288 131.233 811.947 127.73 812.044 123.313C812.141 118.896 808.638 115.237 804.221 115.14L803.871 131.136ZM840.354 117.906C835.973 117.329 831.955 120.413 831.378 124.793C830.801 129.173 833.884 133.192 838.265 133.769L840.354 117.906ZM864.261 138.302C868.578 139.242 872.84 136.504 873.78 132.187C874.719 127.87 871.981 123.608 867.664 122.669L864.261 138.302ZM902.608 132.293C898.419 130.89 893.885 133.149 892.482 137.339C891.079 141.528 893.338 146.062 897.528 147.465L902.608 132.293ZM922.184 156.876C926.243 158.621 930.948 156.745 932.694 152.686C934.439 148.627 932.563 143.922 928.504 142.177L922.184 156.876ZM960.971 158.271C957.125 156.098 952.244 157.454 950.071 161.301C947.897 165.147 949.254 170.028 953.1 172.201L960.971 158.271ZM975.522 186.125C979.176 188.609 984.152 187.66 986.636 184.007C989.12 180.353 988.172 175.377 984.518 172.893L975.522 186.125ZM1013.34 194.862C1009.98 191.997 1004.93 192.401 1002.06 195.765C999.197 199.128 999.601 204.177 1002.96 207.042L1013.34 194.862ZM1022.32 224.976C1025.44 228.111 1030.5 228.128 1033.64 225.015C1036.77 221.902 1036.79 216.836 1033.68 213.701L1022.32 224.976ZM1057.77 240.778C1055.02 237.322 1049.99 236.751 1046.53 239.502C1043.07 242.254 1042.5 247.288 1045.26 250.744L1057.77 240.778ZM1060.8 272.055C1063.26 275.731 1068.22 276.723 1071.9 274.272C1075.57 271.82 1076.57 266.853 1074.12 263.177L1060.8 272.055ZM1092.54 294.41C1090.51 290.486 1085.68 288.952 1081.76 290.983C1077.83 293.015 1076.3 297.842 1078.33 301.766L1092.54 294.41ZM499.069 301.965C497.109 305.924 498.73 310.723 502.69 312.683C506.649 314.644 511.448 313.023 513.408 309.063L499.069 301.965ZM500.93 337.744C502.49 333.611 500.404 328.995 496.271 327.435C492.137 325.874 487.521 327.96 485.961 332.094L500.93 337.744ZM477.985 355.931C476.744 360.171 479.175 364.615 483.415 365.856C487.655 367.098 492.099 364.666 493.34 360.426L477.985 355.931ZM486.07 390.833C486.88 386.49 484.016 382.312 479.673 381.501C475.33 380.691 471.152 383.555 470.341 387.898L486.07 390.833ZM466.686 412.777C466.213 417.17 469.39 421.114 473.783 421.587C478.176 422.06 482.121 418.882 482.594 414.49L466.686 412.777ZM480.824 445.695C480.851 441.276 477.291 437.673 472.873 437.647C468.454 437.62 464.851 441.18 464.825 445.598L480.824 445.695ZM465.646 470.732C465.96 475.139 469.788 478.456 474.195 478.141C478.602 477.827 481.92 473.999 481.605 469.592L465.646 470.732ZM485.395 500.624C484.641 496.271 480.5 493.353 476.147 494.107C471.793 494.861 468.875 499.002 469.63 503.355L485.395 500.624ZM474.904 528.134C475.988 532.417 480.339 535.01 484.622 533.926C488.906 532.841 491.499 528.49 490.415 524.207L474.904 528.134ZM499.755 554.541C498.241 550.39 493.649 548.253 489.498 549.767C485.348 551.28 483.21 555.873 484.724 560.023L499.755 554.541ZM494.405 583.647C496.24 587.667 500.986 589.438 505.005 587.603C509.024 585.768 510.795 581.023 508.961 577.003L494.405 583.647ZM523.603 605.155C521.366 601.345 516.463 600.07 512.653 602.308C508.844 604.545 507.569 609.448 509.806 613.257L523.603 605.155ZM523.587 634.747C526.116 638.371 531.103 639.258 534.726 636.729C538.349 634.2 539.236 629.213 536.707 625.59L523.587 634.747ZM556.177 650.659C553.293 647.312 548.242 646.936 544.895 649.82C541.547 652.704 541.172 657.755 544.056 661.103L556.177 650.659ZM561.447 679.777C564.581 682.892 569.646 682.877 572.761 679.744C575.876 676.61 575.86 671.545 572.727 668.43L561.447 679.777ZM596.343 689.66C592.914 686.874 587.875 687.396 585.089 690.825C582.304 694.254 582.825 699.293 586.254 702.079L596.343 689.66ZM795.371 781.572C799.789 781.594 803.388 778.029 803.409 773.611C803.43 769.193 799.866 765.594 795.448 765.573L795.371 781.572ZM844.718 761.958C840.349 762.622 837.347 766.701 838.01 771.069C838.674 775.438 842.754 778.44 847.122 777.777L844.718 761.958ZM879.64 771.191C883.922 770.103 886.512 765.75 885.424 761.467C884.336 757.185 879.983 754.595 875.701 755.683L879.64 771.191ZM907.424 745.848C903.278 747.375 901.154 751.973 902.681 756.119C904.207 760.266 908.806 762.389 912.952 760.863L907.424 745.848ZM937.592 750.651C941.602 748.797 943.35 744.043 941.496 740.032C939.642 736.022 934.888 734.274 930.877 736.128L937.592 750.651ZM960.225 720.634C956.432 722.9 955.194 727.812 957.46 731.605C959.725 735.398 964.637 736.636 968.43 734.37L960.225 720.634ZM990.763 719.779C994.361 717.215 995.2 712.22 992.636 708.622C990.073 705.023 985.077 704.184 981.479 706.748L990.763 719.779ZM1007.47 686.092C1004.16 689.018 1003.85 694.074 1006.77 697.384C1009.7 700.694 1014.76 701.005 1018.07 698.078L1007.47 686.092ZM1037.32 679.625C1040.39 676.443 1040.3 671.379 1037.11 668.313C1033.93 665.248 1028.87 665.342 1025.8 668.524L1037.32 679.625ZM1047.56 643.446C1044.84 646.929 1045.46 651.956 1048.95 654.674C1052.43 657.392 1057.46 656.77 1060.17 653.287L1047.56 643.446ZM1075.73 631.623C1078.16 627.934 1077.14 622.972 1073.45 620.54C1069.76 618.108 1064.8 619.127 1062.37 622.816L1075.73 631.623ZM1079.18 594.182C1077.14 598.104 1078.67 602.933 1082.59 604.968C1086.51 607.003 1091.34 605.474 1093.38 601.552L1079.18 594.182ZM1104.71 577.409C1106.43 573.338 1104.52 568.646 1100.45 566.93C1096.37 565.214 1091.68 567.123 1089.97 571.195L1104.71 577.409ZM1101.24 539.972C1099.96 544.201 1102.35 548.667 1106.58 549.948C1110.81 551.229 1115.27 548.84 1116.56 544.611L1101.24 539.972ZM1123.26 518.792C1124.19 514.474 1121.45 510.215 1117.14 509.278C1112.82 508.341 1108.56 511.081 1107.62 515.399L1123.26 518.792ZM1112.94 482.632C1112.46 487.024 1115.64 490.972 1120.03 491.448C1124.42 491.925 1128.37 488.751 1128.85 484.358L1112.94 482.632ZM623.359 182.113C626.876 179.841 630.445 177.634 634.064 175.494L625.921 161.721C622.119 163.969 618.37 166.287 614.676 168.675L623.359 182.113ZM663.222 160.244C670.803 156.768 678.566 153.571 686.499 150.668L681.002 135.642C672.671 138.69 664.517 142.048 656.553 145.7L663.222 160.244ZM717.952 140.962C722.004 139.935 726.094 138.983 730.219 138.106L726.893 122.455C722.565 123.375 718.274 124.375 714.022 125.452L717.952 140.962ZM730.219 138.106C734.547 137.186 738.873 136.358 743.194 135.622L740.506 119.849C735.971 120.622 731.433 121.49 726.893 122.455L730.219 138.106ZM777.488 131.656C786.329 131.114 795.13 130.945 803.871 131.136L804.221 115.14C795.038 114.939 785.795 115.117 776.509 115.686L777.488 131.656ZM838.265 133.769C847.023 134.923 855.695 136.438 864.261 138.302L867.664 122.669C858.666 120.71 849.555 119.118 840.354 117.906L838.265 133.769ZM897.528 147.465C905.889 150.265 914.114 153.406 922.184 156.876L928.504 142.177C920.029 138.533 911.39 135.234 902.608 132.293L897.528 147.465ZM953.1 172.201C960.766 176.532 968.247 181.178 975.522 186.125L984.518 172.893C976.877 167.698 969.021 162.819 960.971 158.271L953.1 172.201ZM1002.96 207.042C1009.66 212.742 1016.12 218.725 1022.32 224.976L1033.68 213.701C1027.15 207.134 1020.37 200.85 1013.34 194.862L1002.96 207.042ZM1045.26 250.744C1050.72 257.605 1055.91 264.713 1060.8 272.055L1074.12 263.177C1068.97 255.46 1063.51 247.989 1057.77 240.778L1045.26 250.744ZM1078.33 301.766C1080.35 305.661 1082.29 309.609 1084.15 313.608L1098.66 306.858C1096.7 302.655 1094.66 298.505 1092.54 294.41L1078.33 301.766ZM504.854 290.81C502.856 294.491 500.927 298.21 499.069 301.965L513.408 309.063C515.178 305.488 517.014 301.947 518.917 298.441L504.854 290.81ZM485.961 332.094C483.005 339.924 480.343 347.875 477.985 355.931L493.34 360.426C495.584 352.762 498.117 345.196 500.93 337.744L485.961 332.094ZM470.341 387.898C468.808 396.114 467.586 404.412 466.686 412.777L482.594 414.49C483.45 406.536 484.612 398.646 486.07 390.833L470.341 387.898ZM464.825 445.598C464.774 453.936 465.045 462.319 465.646 470.732L481.605 469.592C481.034 461.592 480.777 453.622 480.824 445.695L464.825 445.598ZM469.63 503.355C470.342 507.468 471.135 511.584 472.01 515.701L487.661 512.374C486.828 508.455 486.073 504.538 485.395 500.624L469.63 503.355ZM472.01 515.701C472.899 519.881 473.864 524.025 474.904 528.134L490.415 524.207C489.425 520.298 488.506 516.353 487.661 512.374L472.01 515.701ZM484.724 560.023C487.658 568.069 490.89 575.947 494.405 583.647L508.961 577.003C505.619 569.682 502.546 562.192 499.755 554.541L484.724 560.023ZM509.806 613.257C514.132 620.623 518.731 627.79 523.587 634.747L536.707 625.59C532.089 618.973 527.716 612.158 523.603 605.155L509.806 613.257ZM544.056 661.103C549.618 667.558 555.42 673.787 561.447 679.777L572.727 668.43C566.991 662.728 561.469 656.801 556.177 650.659L544.056 661.103ZM586.254 702.079C589.555 704.76 592.907 707.379 596.307 709.933L605.916 697.139C602.678 694.707 599.486 692.214 596.343 689.66L586.254 702.079ZM775.522 780.882C782.104 781.309 788.722 781.54 795.371 781.572L795.448 765.573C789.12 765.542 782.821 765.322 776.558 764.915L775.522 780.882ZM847.122 777.777C853.624 776.788 860.136 775.604 866.651 774.219L863.324 758.569C857.115 759.888 850.911 761.017 844.718 761.958L847.122 777.777ZM866.651 774.219C871.019 773.291 875.349 772.28 879.64 771.191L875.701 755.683C871.613 756.721 867.487 757.684 863.324 758.569L866.651 774.219ZM912.952 760.863C921.351 757.77 929.568 754.361 937.592 750.651L930.877 736.128C923.241 739.659 915.42 742.904 907.424 745.848L912.952 760.863ZM968.43 734.37C976.097 729.791 983.545 724.921 990.763 719.779L981.479 706.748C974.609 711.642 967.521 716.276 960.225 720.634L968.43 734.37ZM1018.07 698.078C1024.74 692.175 1031.17 686.018 1037.32 679.625L1025.8 668.524C1019.94 674.611 1013.82 680.473 1007.47 686.092L1018.07 698.078ZM1060.17 653.287C1065.65 646.272 1070.83 639.044 1075.73 631.623L1062.37 622.816C1057.71 629.884 1052.77 636.766 1047.56 643.446L1060.17 653.287ZM1093.38 601.552C1097.47 593.667 1101.25 585.613 1104.71 577.409L1089.97 571.195C1086.67 579.005 1083.07 586.674 1079.18 594.182L1093.38 601.552ZM1116.56 544.611C1119.13 536.121 1121.37 527.509 1123.26 518.792L1107.62 515.399C1105.82 523.694 1103.69 531.891 1101.24 539.972L1116.56 544.611ZM1128.85 484.358C1129.33 479.946 1129.72 475.515 1130.02 471.067L1114.05 469.985C1113.77 474.217 1113.4 478.434 1112.94 482.632L1128.85 484.358Z" fill="#6499F5"/>
</g>
</g>
<defs>
<clipPath id="clip0">
<rect width="1660" height="1298" fill="white"/>
</clipPath>
</defs>
</svg>
