<svg width="2256" height="2028" viewBox="0 0 2256 2028" fill="none" xmlns="http://www.w3.org/2000/svg">
<g id="linked-data-document">
<g id="model">
<g id="Group 13">
<g id="Group 12">
<path id="Rectangle 14" d="M1960 478H2002C2013.05 478 2022 486.954 2022 498V622C2022 633.046 2013.05 642 2002 642H1960" stroke="#C1C4CB" stroke-width="4"/>
<path id="Rectangle 14 Copy" d="M1724 642H1630C1618.95 642 1610 650.954 1610 662V786C1610 797.046 1618.95 806 1630 806H1724" stroke="#C1C4CB" stroke-width="4"/>
<g id="Group 2">
<g id="model-node">
<g id="Rectangle 6 Copy">
<mask id="path-6-inside-1" fill="white">
<rect x="1724" y="762" width="248" height="92" rx="4"/>
</mask>
<rect x="1724" y="762" width="248" height="92" rx="4" fill="white" stroke="#9DA1A9" stroke-width="10" mask="url(#path-6-inside-1)"/>
</g>
<rect id="Rectangle 4 Copy 3" x="1792" y="794" width="114" height="22" rx="5.5" fill="#C1C4CB"/>
</g>
<g id="model-node copy">
<g id="Rectangle 6 Copy_2">
<mask id="path-9-inside-2" fill="white">
<rect x="1724" y="594" width="248" height="92" rx="4"/>
</mask>
<rect x="1724" y="594" width="248" height="92" rx="4" fill="white" stroke="#9DA1A9" stroke-width="10" mask="url(#path-9-inside-2)"/>
</g>
<rect id="Rectangle 4 Copy 3_2" x="1792" y="626" width="114" height="22" rx="5.5" fill="#C1C4CB"/>
</g>
<g id="model-node copy 2">
<g id="Rectangle 6 Copy_3">
<mask id="path-12-inside-3" fill="white">
<rect x="1724" y="434" width="248" height="92" rx="4"/>
</mask>
<rect x="1724" y="434" width="248" height="92" rx="4" fill="white" stroke="#9DA1A9" stroke-width="10" mask="url(#path-12-inside-3)"/>
</g>
<rect id="Rectangle 4 Copy 3_3" x="1792" y="466" width="114" height="22" rx="5.5" fill="#C1C4CB"/>
</g>
<g id="connection">
<g id="Rectangle 2">
<mask id="path-15-inside-4" fill="white">
<rect x="1946" y="458" width="40" height="40" rx="3"/>
</mask>
<rect x="1946" y="458" width="40" height="40" rx="3" fill="#C1C4CB" stroke="#9DA1A9" stroke-width="8" mask="url(#path-15-inside-4)"/>
</g>
</g>
<g id="connection copy">
<g id="Rectangle 2_2">
<mask id="path-17-inside-5" fill="white">
<rect x="1946" y="620" width="40" height="40" rx="3"/>
</mask>
<rect x="1946" y="620" width="40" height="40" rx="3" fill="#C1C4CB" stroke="#9DA1A9" stroke-width="8" mask="url(#path-17-inside-5)"/>
</g>
</g>
<g id="connection copy 2">
<g id="Rectangle 2_3">
<mask id="path-19-inside-6" fill="white">
<rect x="1704" y="620" width="40" height="40" rx="3"/>
</mask>
<rect x="1704" y="620" width="40" height="40" rx="3" fill="#C1C4CB" stroke="#9DA1A9" stroke-width="8" mask="url(#path-19-inside-6)"/>
</g>
</g>
<g id="connection copy 3">
<g id="Rectangle 2_4">
<mask id="path-21-inside-7" fill="white">
<rect x="1710" y="788" width="40" height="40" rx="3"/>
</mask>
<rect x="1710" y="788" width="40" height="40" rx="3" fill="#C1C4CB" stroke="#9DA1A9" stroke-width="8" mask="url(#path-21-inside-7)"/>
</g>
</g>
</g>
<g id="model-node copy 3">
<g id="Rectangle 6 Copy_4">
<mask id="path-23-inside-8" fill="white">
<rect x="1398" y="674" width="248" height="92" rx="4"/>
</mask>
<rect x="1398" y="674" width="248" height="92" rx="4" fill="white" stroke="#9DA1A9" stroke-width="10" mask="url(#path-23-inside-8)"/>
</g>
<rect id="Rectangle 4 Copy 3_4" x="1466" y="706" width="114" height="22" rx="5.5" fill="#C1C4CB"/>
</g>
<g id="connection copy 4">
<g id="Rectangle 2_5">
<mask id="path-26-inside-9" fill="white">
<rect x="1588" y="660" width="40" height="40" rx="3"/>
</mask>
<rect x="1588" y="660" width="40" height="40" rx="3" fill="#C1C4CB" stroke="#9DA1A9" stroke-width="8" mask="url(#path-26-inside-9)"/>
</g>
</g>
<g id="connection copy 5">
<g id="Rectangle 2_6">
<mask id="path-28-inside-10" fill="white">
<rect x="1588" y="746" width="40" height="40" rx="3"/>
</mask>
<rect x="1588" y="746" width="40" height="40" rx="3" fill="#C1C4CB" stroke="#9DA1A9" stroke-width="8" mask="url(#path-28-inside-10)"/>
</g>
</g>
</g>
<rect id="Rectangle 4 Copy 24" x="1466" y="706" width="114" height="22" rx="5.5" fill="#6499F5"/>
</g>
</g>
<g id="document">
<g id="FOLDY">
<path id="Rectangle" fill-rule="evenodd" clip-rule="evenodd" d="M690.228 1088.1C688.798 1089.59 688 1091.57 688 1093.64L688 1610C688 1614.42 691.582 1618 696 1618H1150C1154.42 1618 1158 1614.42 1158 1610V1008C1158 1003.58 1154.42 1000 1150 1000L778.194 1000C776.016 1000 773.931 1000.89 772.422 1002.46L690.228 1088.1Z" fill="white" stroke="#9DA1A9" stroke-width="5"/>
<g id="Rectangle 13 Copy 3">
<path id="Rectangle 13 Copy 2" d="M782 1024V1079.34C782 1086.85 774.275 1092.95 764.745 1092.95H692" stroke="#9DA1A9" stroke-width="5" stroke-linecap="round"/>
</g>
</g>
<path id="Rectangle 2 Copy 19" fill-rule="evenodd" clip-rule="evenodd" d="M944 1199C944 1192.92 948.925 1188 955 1188H1021C1027.08 1188 1032 1192.92 1032 1199V1199C1032 1205.08 1027.08 1210 1021 1210H955C948.925 1210 944 1205.08 944 1199V1199Z" fill="#C1C4CB"/>
<path id="Rectangle 2 Copy 20" fill-rule="evenodd" clip-rule="evenodd" d="M944 1152C944 1146.48 948.477 1142 954 1142H1052C1057.52 1142 1062 1146.48 1062 1152V1152C1062 1157.52 1057.52 1162 1052 1162H954C948.477 1162 944 1157.52 944 1152V1152Z" fill="#C1C4CB"/>
<path id="Rectangle 2 Copy 24" fill-rule="evenodd" clip-rule="evenodd" d="M794 1320C794 1314.48 798.477 1310 804 1310H1052C1057.52 1310 1062 1314.48 1062 1320V1320C1062 1325.52 1057.52 1330 1052 1330H804C798.477 1330 794 1325.52 794 1320V1320Z" fill="#C1C4CB"/>
<path id="Rectangle 2 Copy 27" fill-rule="evenodd" clip-rule="evenodd" d="M794 1474C794 1468.48 798.477 1464 804 1464H972C977.523 1464 982 1468.48 982 1474V1474C982 1479.52 977.523 1484 972 1484H804C798.477 1484 794 1479.52 794 1474V1474Z" fill="#C1C4CB"/>
<path id="Rectangle 2 Copy 25" fill-rule="evenodd" clip-rule="evenodd" d="M794 1364C794 1358.48 798.477 1354 804 1354H986C991.523 1354 996 1358.48 996 1364V1364C996 1369.52 991.523 1374 986 1374H804C798.477 1374 794 1369.52 794 1364V1364Z" fill="#C1C4CB"/>
<rect id="Rectangle 2 Copy 26" x="794" y="1266" width="268" height="20" rx="5" fill="#C1C4CB"/>
<g id="Group 9">
<rect id="Rectangle 2 Copy 23" x="790" y="1096" width="114" height="114" rx="3.5" fill="#DFE1E4"/>
<path id="Line" fill-rule="evenodd" clip-rule="evenodd" d="M790.656 1181.82L828.073 1159.02L862.564 1170.77L904 1132V1202C904 1206.42 900.418 1210 896 1210H798C793.582 1210 790 1206.42 790 1202V1182.15" fill="#C1C4CB"/>
</g>
<rect id="Rectangle 2 Copy 28" x="794" y="1420" width="268" height="20" rx="5" fill="#C1C4CB"/>
<rect id="Rectangle 4 Copy 25" x="944" y="1096" width="94" height="22" rx="5.5" fill="#6499F5"/>
</g>
<g id="spacecraft">
<g id="Group 11">
<g id="FOLDY Copy">
<path id="Rectangle_2" fill-rule="evenodd" clip-rule="evenodd" d="M406.098 296.228C407.588 294.798 409.573 294 411.638 294H928C932.418 294 936 297.582 936 302V756C936 760.418 932.418 764 928 764H326C321.582 764 318 760.418 318 756V384.194C318 382.016 318.889 379.931 320.46 378.422L406.098 296.228Z" fill="white" stroke="#9DA1A9" stroke-width="5"/>
<g id="Rectangle 13 Copy 2_2">
<path id="Rectangle 13 Copy 2_3" d="M414 314V369.341C414 376.855 406.275 382.946 396.745 382.946H324" stroke="#9DA1A9" stroke-width="5" stroke-linecap="round"/>
</g>
</g>
<g id="Group 5">
<rect id="Rectangle 2 Copy 32" x="360" y="422" width="114" height="20" rx="5" fill="#C1C4CB"/>
</g>
<g id="satellite">
<g id="Group 8">
<g id="Rectangle 2 Copy 30">
<rect id="Rectangle 2 Copy 33" x="618.133" y="577.203" width="200" height="12" rx="3" transform="rotate(160 618.133 577.203)" fill="#C1C4CB"/>
<rect id="Rectangle 2 Copy 31" x="459.769" y="685.924" width="68" height="106" rx="3.5" transform="rotate(160 459.769 685.924)" fill="#DFE1E4" stroke="#9DA1A9" stroke-width="4"/>
<rect id="Rectangle 2 Copy 32_2" x="538.702" y="657.194" width="68" height="106" rx="3.5" transform="rotate(160 538.702 657.194)" fill="#DFE1E4" stroke="#9DA1A9" stroke-width="4"/>
<rect id="Rectangle 2 Copy 34" x="617.636" y="628.464" width="68" height="106" rx="3.5" transform="rotate(160 617.636 628.464)" fill="#DFE1E4" stroke="#9DA1A9" stroke-width="4"/>
</g>
<rect id="Rectangle 2 Copy 21" x="602.984" y="490.844" width="24" height="110" rx="5.5" transform="rotate(-20 602.984 490.844)" fill="#DFE1E4"/>
<g id="Rectangle 2 Copy 31_2">
<rect id="Rectangle 2 Copy 33_2" x="647.09" y="553.541" width="200" height="12" rx="3" transform="rotate(-20 647.09 553.541)" fill="#C1C4CB"/>
<rect id="Rectangle 2 Copy 31_3" x="805.454" y="444.82" width="68" height="106" rx="3.5" transform="rotate(-20 805.454 444.82)" fill="#DFE1E4" stroke="#9DA1A9" stroke-width="4"/>
<rect id="Rectangle 2 Copy 32_3" x="726.52" y="473.549" width="68" height="106" rx="3.5" transform="rotate(-20 726.52 473.549)" fill="#DFE1E4" stroke="#9DA1A9" stroke-width="4"/>
<rect id="Rectangle 2 Copy 34_2" x="647.587" y="502.279" width="68" height="106" rx="3.5" transform="rotate(-20 647.587 502.279)" fill="#DFE1E4" stroke="#9DA1A9" stroke-width="4"/>
</g>
<rect id="Rectangle 2 Copy 21_2" x="586.755" y="498.88" width="40" height="106" rx="3.5" transform="rotate(-20 586.755 498.88)" stroke="#9DA1A9" stroke-width="4"/>
<path id="Line 9" d="M590.822 448.659L582.863 426.791" stroke="#9DA1A9" stroke-width="4" stroke-linecap="round"/>
<path id="Oval 4" fill-rule="evenodd" clip-rule="evenodd" d="M599.393 475.125C625.342 465.68 643.612 443.219 643.612 443.219C643.612 443.219 621.24 453.191 595.291 462.636C569.342 472.081 544.379 478.693 544.379 478.693C544.379 478.693 573.444 484.57 599.393 475.125Z" fill="#DFE1E4"/>
<path id="Path" fill-rule="evenodd" clip-rule="evenodd" d="M547.129 477.069L547.143 476.904C547.792 470.951 565.357 460.076 588.671 451.367L591.363 450.38L593.215 449.724C616.279 441.654 636.251 438.817 640.548 442.89C640.752 442.864 640.871 442.896 640.904 442.989C640.976 443.185 641.038 443.383 641.09 443.585C641.151 443.695 641.203 443.81 641.246 443.928C641.429 444.43 641.446 444.982 641.308 445.579C641.036 454.842 624.185 468.046 600.983 476.67L600.076 477.004C576.407 485.619 554.533 486.445 548.291 479.435C547.802 479.066 547.46 478.632 547.277 478.13C547.234 478.012 547.2 477.89 547.175 477.766C547.087 477.579 547.007 477.387 546.935 477.191C546.924 477.16 546.989 477.12 547.129 477.069Z" stroke="#9DA1A9" stroke-width="4" stroke-linejoin="round"/>
</g>
<path id="Line 10" d="M633.719 551.255L642.276 574.766" stroke="#9DA1A9" stroke-width="4" stroke-linecap="round" stroke-dasharray="6 6"/>
<rect id="Rectangle 2 Copy 31_4" x="805.165" y="446.308" width="68" height="106" rx="3.5" transform="rotate(-20 805.165 446.308)" fill="#AEC8F9" stroke="#6499F5" stroke-width="4"/>
</g>
<rect id="Rectangle 2 Copy 29" x="360" y="466" width="84" height="20" rx="5" fill="#C1C4CB"/>
<rect id="Rectangle 2 Copy 33_3" x="360" y="510" width="100" height="20" rx="5" fill="#C1C4CB"/>
</g>
</g>
<path id="Oval Copy" d="M1489.59 625.79C1491.46 629.796 1496.22 631.533 1500.22 629.669C1504.23 627.805 1505.96 623.047 1504.1 619.041L1489.59 625.79ZM943.964 459.119C940.253 461.517 939.189 466.469 941.587 470.18C943.985 473.891 948.937 474.955 952.648 472.557L943.964 459.119ZM830.937 608.107C833.044 604.224 831.604 599.367 827.721 597.26C823.837 595.153 818.981 596.593 816.874 600.476L830.937 608.107ZM922.712 1085.52C926.245 1088.18 931.26 1087.46 933.913 1083.93C936.567 1080.4 935.854 1075.38 932.321 1072.73L922.712 1085.52ZM1131.16 1151.69C1126.75 1151.4 1122.95 1154.74 1122.66 1159.15C1122.38 1163.56 1125.72 1167.37 1130.13 1167.65L1131.16 1151.69ZM1540.41 809.091C1540.7 804.683 1537.37 800.867 1532.96 800.569C1528.56 800.27 1524.74 803.601 1524.44 808.009L1540.41 809.091ZM965.122 464.844C968.925 462.596 970.186 457.69 967.937 453.886C965.689 450.083 960.783 448.822 956.979 451.071L965.122 464.844ZM992.43 432.529C988.414 434.371 986.651 439.119 988.493 443.136C990.334 447.152 995.083 448.915 999.099 447.073L992.43 432.529ZM1026.22 435.915C1030.37 434.397 1032.51 429.803 1030.99 425.653C1029.47 421.504 1024.88 419.371 1020.73 420.889L1026.22 435.915ZM1058.94 409.095C1054.66 410.181 1052.07 414.532 1053.15 418.815C1054.24 423.098 1058.59 425.69 1062.87 424.605L1058.94 409.095ZM1090.4 418.709C1094.75 417.945 1097.66 413.798 1096.89 409.446C1096.13 405.094 1091.98 402.186 1087.63 402.951L1090.4 418.709ZM1124.02 398.303C1119.62 398.656 1116.33 402.512 1116.68 406.917C1117.04 411.321 1120.89 414.605 1125.3 414.252L1124.02 398.303ZM1152.19 413.077C1156.61 413.045 1160.17 409.437 1160.14 405.019C1160.1 400.601 1156.5 397.045 1152.08 397.078L1152.19 413.077ZM1188.75 398.557C1184.35 398.169 1180.46 401.422 1180.08 405.823C1179.69 410.224 1182.94 414.107 1187.34 414.495L1188.75 398.557ZM1214.05 417.838C1218.41 418.546 1222.52 415.585 1223.22 411.224C1223.93 406.863 1220.97 402.753 1216.61 402.045L1214.05 417.838ZM1252.52 409.65C1248.24 408.53 1243.87 411.086 1242.75 415.36C1241.63 419.634 1244.19 424.007 1248.46 425.127L1252.52 409.65ZM1274.23 432.894C1278.41 434.322 1282.96 432.09 1284.38 427.909C1285.81 423.728 1283.58 419.181 1279.4 417.753L1274.23 432.894ZM1313.53 431.249C1309.5 429.431 1304.76 431.222 1302.95 435.25C1301.13 439.277 1302.92 444.015 1306.95 445.832L1313.53 431.249ZM1331.06 457.786C1334.95 459.89 1339.8 458.447 1341.9 454.562C1344.01 450.677 1342.57 445.821 1338.68 443.717L1331.06 457.786ZM1370.09 462.705C1366.42 460.243 1361.45 461.221 1358.99 464.889C1356.53 468.558 1357.5 473.528 1361.17 475.99L1370.09 462.705ZM1382.96 491.788C1386.44 494.509 1391.47 493.894 1394.19 490.414C1396.91 486.933 1396.3 481.905 1392.82 479.184L1382.96 491.788ZM1420.62 503.143C1417.42 500.103 1412.35 500.238 1409.31 503.444C1406.27 506.65 1406.41 511.714 1409.62 514.754L1420.62 503.143ZM1428.45 533.968C1431.43 537.234 1436.49 537.469 1439.75 534.493C1443.02 531.518 1443.25 526.458 1440.28 523.192L1428.45 533.968ZM1463.67 551.484C1461.03 547.948 1456.01 547.229 1452.48 549.877C1448.94 552.526 1448.22 557.54 1450.87 561.076L1463.67 551.484ZM1466.19 583.188C1468.57 586.91 1473.52 587.997 1477.24 585.616C1480.96 583.235 1482.05 578.287 1479.67 574.566L1466.19 583.188ZM1497.94 606.414C1495.93 602.48 1491.11 600.921 1487.18 602.931C1483.24 604.942 1481.68 609.761 1483.69 613.695L1497.94 606.414ZM810.178 613.386C808.218 617.346 809.839 622.145 813.799 624.105C817.759 626.065 822.558 624.444 824.518 620.484L810.178 613.386ZM809.977 653.906C811.537 649.773 809.451 645.157 805.318 643.597C801.184 642.036 796.568 644.123 795.008 648.256L809.977 653.906ZM785.777 675.843C784.536 680.083 786.967 684.527 791.207 685.768C795.447 687.01 799.891 684.578 801.133 680.338L785.777 675.843ZM792.66 715.773C793.47 711.43 790.606 707.252 786.263 706.441C781.92 705.631 777.742 708.495 776.931 712.838L792.66 715.773ZM772.701 741.629C772.228 746.022 775.406 749.966 779.798 750.439C784.191 750.912 788.136 747.735 788.609 743.342L772.701 741.629ZM786.547 779.708C786.573 775.29 783.013 771.687 778.595 771.66C774.177 771.633 770.574 775.194 770.547 779.612L786.547 779.708ZM771.497 808.697C771.812 813.104 775.64 816.422 780.047 816.107C784.454 815.793 787.771 811.965 787.457 807.558L771.497 808.697ZM791.873 843.721C791.119 839.368 786.978 836.45 782.625 837.204C778.271 837.958 775.354 842.099 776.108 846.452L791.873 843.721ZM782.212 875.129C783.296 879.412 787.647 882.005 791.93 880.921C796.214 879.837 798.807 875.485 797.723 871.202L782.212 875.129ZM808.608 906.552C807.094 902.402 802.502 900.264 798.351 901.778C794.2 903.292 792.062 907.884 793.576 912.035L808.608 906.552ZM804.78 939.373C806.615 943.393 811.361 945.164 815.38 943.329C819.399 941.494 821.17 936.749 819.336 932.729L804.78 939.373ZM836.4 965.537C834.162 961.727 829.26 960.453 825.45 962.69C821.64 964.927 820.366 969.83 822.603 973.64L836.4 965.537ZM838.551 998.509C841.08 1002.13 846.067 1003.02 849.69 1000.49C853.313 997.962 854.2 992.975 851.671 989.352L838.551 998.509ZM874.36 1018.57C871.477 1015.22 866.425 1014.84 863.078 1017.73C859.731 1020.61 859.355 1025.66 862.239 1029.01L874.36 1018.57ZM882.366 1050.62C885.5 1053.74 890.565 1053.72 893.68 1050.59C896.795 1047.45 896.78 1042.39 893.646 1039.27L882.366 1050.62ZM921.166 1064.01C917.736 1061.23 912.698 1061.75 909.912 1065.18C907.126 1068.61 907.648 1073.65 911.077 1076.43L921.166 1064.01ZM1141.61 1168.23C1146.02 1168.38 1149.73 1164.92 1149.88 1160.51C1150.03 1156.09 1146.58 1152.39 1142.16 1152.24L1141.61 1168.23ZM1170.97 1152.11C1166.55 1152.3 1163.13 1156.04 1163.32 1160.45C1163.51 1164.86 1167.25 1168.29 1171.66 1168.09L1170.97 1152.11ZM1194.58 1166.41C1198.98 1165.96 1202.17 1162.03 1201.72 1157.63C1201.26 1153.24 1197.33 1150.04 1192.94 1150.5L1194.58 1166.41ZM1221.46 1146.43C1217.11 1147.22 1214.23 1151.38 1215.02 1155.73C1215.81 1160.08 1219.98 1162.96 1224.33 1162.17L1221.46 1146.43ZM1248.77 1156.91C1253.05 1155.84 1255.66 1151.5 1254.6 1147.21C1253.53 1142.92 1249.19 1140.31 1244.9 1141.38L1248.77 1156.91ZM1277.35 1131.73C1273.18 1133.18 1270.97 1137.74 1272.42 1141.91C1273.87 1146.08 1278.43 1148.29 1282.6 1146.84L1277.35 1131.73ZM1307.8 1137.07C1311.86 1135.33 1313.74 1130.63 1312 1126.57C1310.26 1122.51 1305.56 1120.63 1301.5 1122.37L1307.8 1137.07ZM1331.96 1107.62C1328.08 1109.73 1326.64 1114.58 1328.74 1118.47C1330.85 1122.35 1335.7 1123.79 1339.59 1121.69L1331.96 1107.62ZM1362.87 1107.97C1366.6 1105.6 1367.69 1100.65 1365.32 1096.93C1362.94 1093.2 1358 1092.11 1354.27 1094.48L1362.87 1107.97ZM1381.94 1074.99C1378.45 1077.7 1377.81 1082.73 1380.52 1086.22C1383.23 1089.71 1388.26 1090.34 1391.75 1087.64L1381.94 1074.99ZM1412.5 1070.34C1415.79 1067.4 1416.08 1062.34 1413.13 1059.05C1410.18 1055.75 1405.13 1055.47 1401.83 1058.42L1412.5 1070.34ZM1426 1034.72C1422.99 1037.95 1423.18 1043.01 1426.41 1046.02C1429.64 1049.03 1434.71 1048.85 1437.72 1045.62L1426 1034.72ZM1455.42 1025.21C1458.19 1021.78 1457.66 1016.74 1454.22 1013.96C1450.79 1011.19 1445.75 1011.72 1442.97 1015.16L1455.42 1025.21ZM1463.03 987.881C1460.58 991.556 1461.57 996.524 1465.24 998.977C1468.92 1001.43 1473.89 1000.44 1476.34 996.765L1463.03 987.881ZM1490.54 973.792C1492.74 969.955 1491.4 965.069 1487.57 962.878C1483.73 960.686 1478.84 962.02 1476.65 965.857L1490.54 973.792ZM1492.09 935.722C1490.25 939.743 1492.03 944.487 1496.05 946.32C1500.07 948.153 1504.81 946.38 1506.64 942.359L1492.09 935.722ZM1516.98 917.405C1518.53 913.266 1516.43 908.657 1512.29 907.11C1508.15 905.563 1503.54 907.663 1502 911.802L1516.98 917.405ZM1512.38 879.584C1511.22 883.847 1513.74 888.244 1518 889.405C1522.26 890.566 1526.66 888.052 1527.82 883.789L1512.38 879.584ZM1534 857.489C1534.86 853.155 1532.04 848.946 1527.71 848.087C1523.37 847.229 1519.16 850.047 1518.3 854.381L1534 857.489ZM1523.34 820.912C1522.88 825.306 1526.08 829.238 1530.47 829.692C1534.87 830.147 1538.8 826.953 1539.25 822.558L1523.34 820.912ZM952.648 472.557C956.746 469.909 960.904 467.337 965.122 464.844L956.979 451.071C952.579 453.672 948.24 456.356 943.964 459.119L952.648 472.557ZM999.099 447.073C1007.93 443.022 1016.98 439.297 1026.22 435.915L1020.73 420.889C1011.08 424.416 1001.65 428.303 992.43 432.529L999.099 447.073ZM1062.87 424.605C1067.6 423.409 1072.36 422.298 1077.17 421.277L1073.84 405.626C1068.83 406.691 1063.87 407.848 1058.94 409.095L1062.87 424.605ZM1077.17 421.277C1081.58 420.339 1085.99 419.483 1090.4 418.709L1087.63 402.951C1083.04 403.757 1078.44 404.649 1073.84 405.626L1077.17 421.277ZM1125.3 414.252C1134.3 413.531 1143.27 413.143 1152.19 413.077L1152.08 397.078C1142.77 397.146 1133.41 397.551 1124.02 398.303L1125.3 414.252ZM1187.34 414.495C1196.32 415.287 1205.22 416.405 1214.05 417.838L1216.61 402.045C1207.4 400.549 1198.11 399.383 1188.75 398.557L1187.34 414.495ZM1248.46 425.127C1257.16 427.408 1265.75 430 1274.23 432.894L1279.4 417.753C1270.56 414.734 1261.59 412.03 1252.52 409.65L1248.46 425.127ZM1306.95 445.832C1315.13 449.528 1323.18 453.516 1331.06 457.786L1338.68 443.717C1330.46 439.263 1322.07 435.104 1313.53 431.249L1306.95 445.832ZM1361.17 475.99C1368.62 480.99 1375.89 486.259 1382.96 491.788L1392.82 479.184C1385.44 473.417 1377.86 467.92 1370.09 462.705L1361.17 475.99ZM1409.62 514.754C1416.12 520.918 1422.4 527.327 1428.45 533.968L1440.28 523.192C1433.96 516.262 1427.41 509.575 1420.62 503.143L1409.62 514.754ZM1450.87 561.076C1456.23 568.235 1461.34 575.609 1466.19 583.188L1479.67 574.566C1474.61 566.653 1469.27 558.956 1463.67 551.484L1450.87 561.076ZM1483.69 613.695C1485.73 617.681 1487.7 621.713 1489.59 625.79L1504.1 619.041C1502.12 614.784 1500.07 610.575 1497.94 606.414L1483.69 613.695ZM816.874 600.476C814.562 604.737 812.329 609.041 810.178 613.386L824.518 620.484C826.58 616.319 828.72 612.192 830.937 608.107L816.874 600.476ZM795.008 648.256C791.587 657.318 788.506 666.52 785.777 675.843L801.133 680.338C803.747 671.407 806.699 662.591 809.977 653.906L795.008 648.256ZM776.931 712.838C775.157 722.346 773.743 731.949 772.701 741.629L788.609 743.342C789.607 734.073 790.961 724.878 792.66 715.773L776.931 712.838ZM770.547 779.612C770.489 789.261 770.802 798.961 771.497 808.697L787.457 807.558C786.791 798.235 786.491 788.946 786.547 779.708L770.547 779.612ZM776.108 846.452C776.932 851.213 777.85 855.976 778.863 860.74L794.513 857.413C793.543 852.847 792.663 848.282 791.873 843.721L776.108 846.452ZM778.863 860.74C779.891 865.577 781.008 870.374 782.212 875.129L797.723 871.202C796.569 866.647 795.499 862.05 794.513 857.413L778.863 860.74ZM793.576 912.035C796.972 921.345 800.712 930.462 804.78 939.373L819.336 932.729C815.441 924.197 811.859 915.468 808.608 906.552L793.576 912.035ZM822.603 973.64C827.609 982.163 832.931 990.457 838.551 998.509L851.671 989.352C846.289 981.64 841.193 973.699 836.4 965.537L822.603 973.64ZM862.239 1029.01C868.676 1036.48 875.391 1043.69 882.366 1050.62L893.646 1039.27C886.962 1032.63 880.527 1025.72 874.36 1018.57L862.239 1029.01ZM911.077 1076.43C914.897 1079.54 918.776 1082.57 922.712 1085.52L932.321 1072.73C928.547 1069.89 924.828 1066.99 921.166 1064.01L911.077 1076.43ZM1130.13 1167.65C1133.94 1167.9 1137.77 1168.09 1141.61 1168.23L1142.16 1152.24C1138.49 1152.11 1134.82 1151.93 1131.16 1151.69L1130.13 1167.65ZM1171.66 1168.09C1179.28 1167.76 1186.92 1167.2 1194.58 1166.41L1192.94 1150.5C1185.59 1151.26 1178.27 1151.79 1170.97 1152.11L1171.66 1168.09ZM1224.33 1162.17C1228.08 1161.48 1231.84 1160.74 1235.6 1159.94L1232.27 1144.29C1228.66 1145.06 1225.06 1145.77 1221.46 1146.43L1224.33 1162.17ZM1235.6 1159.94C1240.02 1159 1244.41 1157.99 1248.77 1156.91L1244.9 1141.38C1240.73 1142.42 1236.51 1143.39 1232.27 1144.29L1235.6 1159.94ZM1282.6 1146.84C1291.16 1143.86 1299.57 1140.6 1307.8 1137.07L1301.5 1122.37C1293.61 1125.75 1285.55 1128.87 1277.35 1131.73L1282.6 1146.84ZM1339.59 1121.69C1347.54 1117.37 1355.3 1112.8 1362.87 1107.97L1354.27 1094.48C1347.02 1099.1 1339.58 1103.49 1331.96 1107.62L1339.59 1121.69ZM1391.75 1087.64C1398.88 1082.1 1405.8 1076.33 1412.5 1070.34L1401.83 1058.42C1395.41 1064.16 1388.78 1069.69 1381.94 1074.99L1391.75 1087.64ZM1437.72 1045.62C1443.86 1039.02 1449.76 1032.21 1455.42 1025.21L1442.97 1015.16C1437.55 1021.86 1431.89 1028.39 1426 1034.72L1437.72 1045.62ZM1476.34 996.765C1481.34 989.275 1486.08 981.613 1490.54 973.792L1476.65 965.857C1472.37 973.355 1467.83 980.701 1463.03 987.881L1476.34 996.765ZM1506.64 942.359C1510.38 934.175 1513.82 925.851 1516.98 917.405L1502 911.802C1498.97 919.898 1495.66 927.876 1492.09 935.722L1506.64 942.359ZM1527.82 883.789C1530.18 875.12 1532.24 866.348 1534 857.489L1518.3 854.381C1516.62 862.87 1514.65 871.276 1512.38 879.584L1527.82 883.789ZM1539.25 822.558C1539.72 818.085 1540.1 813.596 1540.41 809.091L1524.44 808.009C1524.15 812.325 1523.78 816.626 1523.34 820.912L1539.25 822.558Z" fill="#6499F5"/>
</g>
</svg>
