<?xml version="1.0" encoding="UTF-8"?>
<svg width="1122px" height="764px" viewBox="0 0 1122 764" version="1.1" xmlns="http://www.w3.org/2000/svg" xmlns:xlink="http://www.w3.org/1999/xlink">
    <!-- Generator: Sketch 61.2 (89653) - https://sketch.com -->
    <title>Group 6</title>
    <desc>Created with Sketch.</desc>
    <g id="Page-1" stroke="none" stroke-width="1" fill="none" fill-rule="evenodd">
        <g id="OpenMBEE" transform="translate(-395.000000, -222.000000)">
            <g id="Group-6" transform="translate(397.000000, 222.000000)">
                <g id="Group-10">
                    <g id="Group-3" transform="translate(171.500000, 118.500000) scale(-1, 1) translate(-171.500000, -118.500000) translate(0.000000, 4.000000)">
                        <path d="M309.151316,24.6960784 L333,24.6960784 C338.522847,24.6960784 343,29.1732309 343,34.6960784 L343,104.5 C343,110.022847 338.522847,114.5 333,114.5 L309.151316,114.5 L309.151316,114.5" id="Rectangle-14-Copy-2" stroke="#C1C4CB" stroke-width="4"></path>
                        <path d="M117.342105,113.377451 L169.398026,113.377451 C174.920874,113.377451 179.398026,117.854603 179.398026,123.377451 L179.398026,193.181373 C179.398026,198.70422 174.920874,203.181373 169.398026,203.181373 L117.342105,203.181373 L117.342105,203.181373" id="Rectangle-14-Copy-3" stroke="#C1C4CB" stroke-width="4" transform="translate(148.370066, 158.279412) scale(-1, 1) translate(-148.370066, -158.279412) "></path>
                        <g id="model-node" transform="translate(179.398026, 179.607843)">
                            <rect id="Rectangle-6-Copy" stroke="#9DA1A9" stroke-width="5" fill="#FFFFFF" x="2.5" y="2.5" width="131.523026" height="44.3921569" rx="4"></rect>
                            <rect id="Rectangle-4-Copy-3" fill="#C1C4CB" x="37.433733" y="17.1798806" width="62.7565524" height="11.8111679" rx="5.90558397"></rect>
                        </g>
                        <g id="model-node" transform="translate(179.398026, 87.558824)">
                            <rect id="Rectangle-6-Copy" stroke="#9DA1A9" stroke-width="5" fill="#FFFFFF" x="2.5" y="2.5" width="131.523026" height="44.3921569" rx="4"></rect>
                            <rect id="Rectangle-4-Copy-3" fill="#C1C4CB" x="37.433733" y="17.1798806" width="62.7565524" height="11.8111679" rx="5.90558397"></rect>
                        </g>
                        <g id="model-node" transform="translate(179.398026, -0.000000)">
                            <rect id="Rectangle-6-Copy" stroke="#9DA1A9" stroke-width="5" fill="#FFFFFF" x="2.5" y="2.5" width="131.523026" height="44.3921569" rx="4"></rect>
                            <rect id="Rectangle-4-Copy-3" fill="#C1C4CB" x="37.433733" y="17.1798806" width="62.7565524" height="11.8111679" rx="5.90558397"></rect>
                        </g>
                        <g id="connection" transform="translate(301.253289, 13.470588)" fill="#C1C4CB" stroke="#9DA1A9" stroke-width="4">
                            <rect id="Rectangle-2" x="2" y="2" width="17.4375" height="17.3284314" rx="3"></rect>
                        </g>
                        <g id="connection" transform="translate(301.253289, 102.151961)" fill="#C1C4CB" stroke="#9DA1A9" stroke-width="4">
                            <rect id="Rectangle-2" x="2" y="2" width="17.4375" height="17.3284314" rx="3"></rect>
                        </g>
                        <g id="connection" transform="translate(169.243421, 102.151961)" fill="#C1C4CB" stroke="#9DA1A9" stroke-width="4">
                            <rect id="Rectangle-2" x="2" y="2" width="17.4375" height="17.3284314" rx="3"></rect>
                        </g>
                        <g id="connection" transform="translate(172.628289, 193.078431)" fill="#C1C4CB" stroke="#9DA1A9" stroke-width="4">
                            <rect id="Rectangle-2" x="2" y="2" width="17.4375" height="17.3284314" rx="3"></rect>
                        </g>
                        <g id="model-node" transform="translate(0.000000, 131.338235)">
                            <rect id="Rectangle-6-Copy" stroke="#9DA1A9" stroke-width="5" fill="#FFFFFF" x="2.5" y="2.5" width="131.523026" height="44.3921569" rx="4"></rect>
                            <rect id="Rectangle-4-Copy-3" fill="#C1C4CB" x="37.433733" y="17.1798806" width="62.7565524" height="11.8111679" rx="5.90558397"></rect>
                        </g>
                        <rect id="Rectangle-4-Copy-29" fill="#6599F5" x="38.3618421" y="150.176471" width="62.0559211" height="12.3480392" rx="6.17401961"></rect>
                        <g id="connection" transform="translate(104.930921, 123.480392)" fill="#C1C4CB" stroke="#9DA1A9" stroke-width="4">
                            <rect id="Rectangle-2" x="2" y="2" width="17.4375" height="17.3284314" rx="3"></rect>
                        </g>
                        <g id="connection" transform="translate(104.930921, 169.504902)" fill="#C1C4CB" stroke="#9DA1A9" stroke-width="4">
                            <rect id="Rectangle-2" x="2" y="2" width="17.4375" height="17.3284314" rx="3"></rect>
                        </g>
                    </g>
                    <g id="Group" transform="translate(778.000000, 195.000000)">
                        <g id="FOLDY" transform="translate(169.495146, 127.000000) scale(-1, 1) translate(-169.495146, -127.000000) translate(0.000000, -0.000000)" stroke="#9DA1A9" stroke-width="5">
                            <path d="M51.209345,0 L334.990291,0 C337.19943,-4.05812251e-16 338.990291,1.790861 338.990291,4 L338.990291,254.398268 C338.990291,256.607407 337.19943,258.398268 334.990291,258.398268 L4,258.398268 C1.790861,258.398268 2.705415e-16,256.607407 0,254.398268 L0,49.4148094 C-1.02138855e-15,48.3270661 0.442986945,47.2862316 1.22689231,46.5321243 L48.4362373,1.11731483 C49.1814405,0.400438523 50.1753047,1.07812855e-15 51.209345,0 Z" id="Rectangle" fill="#FFFFFF" fill-rule="evenodd"></path>
                            <g id="Rectangle-13-Copy-2" transform="translate(3.291168, 10.995671)" stroke-linecap="round">
                                <path d="M49.3675181,0 L49.3675181,30.4254198 C49.3675181,34.5565036 45.1300208,37.9054086 39.902803,37.9054086 L0,37.9054086"></path>
                            </g>
                        </g>
                        <g id="Group-4" transform="translate(179.500000, 126.629449) scale(-1, 1) translate(-179.500000, -126.629449) translate(11.000000, 19.129449)">
                            <g id="Group-8" transform="translate(168.596969, 107.396183) rotate(-20.000000) translate(-168.596969, -107.396183) translate(10.096969, 50.896183)">
                                <g id="Rectangle-2-Copy-30" transform="translate(74.460167, 82.100450) rotate(180.000000) translate(-74.460167, -82.100450) translate(0.383738, 51.862355)">
                                    <rect id="Rectangle-2-Copy-33" fill="#C1C4CB" x="0" y="27.4891775" width="109.742858" height="6.5974026" rx="3.2987013"></rect>
                                    <rect id="Rectangle-2-Copy-31" stroke="#9DA1A9" stroke-width="4" fill="#DFE1E4" x="102.963429" y="2" width="35.5074289" height="56.4761905" rx="5.5"></rect>
                                    <rect id="Rectangle-2-Copy-32" stroke="#9DA1A9" stroke-width="4" fill="#DFE1E4" x="56.871429" y="2" width="35.5074289" height="56.4761905" rx="5.5"></rect>
                                    <rect id="Rectangle-2-Copy-34" stroke="#9DA1A9" stroke-width="4" fill="#DFE1E4" x="10.7794286" y="2" width="35.5074289" height="56.4761905" rx="5.5"></rect>
                                </g>
                                <rect id="Rectangle-2-Copy-21" fill="#DFE1E4" x="156.932287" y="37.3852814" width="13.169143" height="60.4761905" rx="5.5"></rect>
                                <g id="Rectangle-2-Copy-30" transform="translate(167.906573, 50.580087)">
                                    <rect id="Rectangle-2-Copy-33" fill="#C1C4CB" x="0" y="27.4891775" width="109.742858" height="6.5974026" rx="3.2987013"></rect>
                                    <rect id="Rectangle-2-Copy-31" stroke="#9DA1A9" stroke-width="4" fill="#DFE1E4" x="102.963429" y="2" width="35.5074289" height="56.4761905" rx="5.5"></rect>
                                    <rect id="Rectangle-2-Copy-32" stroke="#9DA1A9" stroke-width="4" fill="#DFE1E4" x="56.871429" y="2" width="35.5074289" height="56.4761905" rx="5.5"></rect>
                                    <rect id="Rectangle-2-Copy-34" stroke="#9DA1A9" stroke-width="4" fill="#DFE1E4" x="10.7794286" y="2" width="35.5074289" height="56.4761905" rx="5.5"></rect>
                                </g>
                                <rect id="Rectangle-2-Copy-21" stroke="#9DA1A9" stroke-width="4" x="147.958001" y="39.3852814" width="20.1434288" height="56.4761905" rx="5.5"></rect>
                                <line x1="158.57843" y1="13.3047144" x2="158.57843" y2="0.510563258" id="Line-9" stroke="#9DA1A9" stroke-width="4" stroke-linecap="round"></line>
                                <path d="M158.029716,28.5887446 C168.131267,28.5887446 177.727275,25.8658357 186.817741,20.4200179 C177.879812,21.0501692 168.360071,21.3652449 158.25852,21.3652449 C148.156969,21.3652449 138.401934,20.9393376 128.993415,20.0875229 C138.249398,25.755004 147.928164,28.5887446 158.029716,28.5887446 Z" id="Oval-4" fill="#DFE1E4"></path>
                                <g id="Group-7" transform="translate(130.594001, 14.294372)" stroke="#9DA1A9" stroke-linejoin="round" stroke-width="4">
                                    <path d="M27.9132444,0.000897616561 C41.8283173,0.0532465754 53.219845,2.38914213 54.706963,5.38162985 C54.8164348,5.40480454 54.871429,5.44390501 54.871429,5.4978355 C54.871429,5.60937565 54.8663131,5.72048479 54.8561612,5.83113408 C54.8659849,5.90726743 54.871429,5.97730309 54.871429,6.04761905 C54.871429,6.34129156 54.776467,6.63007506 54.5929425,6.91255892 C52.689662,11.7080341 41.2560424,15.3939394 27.4357145,15.3939394 C13.6153866,15.3939394 2.181767,11.7080341 0.278370787,6.91290013 C0.0949619881,6.63007506 0,6.34129156 0,6.04761905 C0,5.97730309 0.00544416079,5.90726743 0.016244638,5.83753141 C0.00511594661,5.72048479 7.98650035e-12,5.60937565 7.98650035e-12,5.4978355 C7.98650035e-12,5.47997426 0.0409752826,5.47124217 0.122925848,5.47163923 C1.43826482,2.40187049 13.1644991,0 27.4357145,0 Z" id="Combined-Shape"></path>
                                </g>
                            </g>
                            <path d="M284.770524,58.2521333 C282.839238,58.2533426 281.273923,59.8186583 281.272716,61.7499444 L281.241791,111.21237 C281.24179,111.21456 281.24179,111.21456 281.241791,111.216749 C281.243002,113.149746 282.810986,114.715768 284.743982,114.714557 L313.26041,114.696702 C315.191696,114.695493 316.757011,113.130177 316.758218,111.198891 L316.789143,61.7364654 C316.789144,61.7342756 316.789144,61.7342756 316.789143,61.7320857 C316.787932,59.7990894 315.219948,58.2330675 313.286952,58.2342779 L284.770524,58.2521333 Z" id="Rectangle-2-Copy-31" stroke="#6599F5" stroke-width="4" fill="#ADC8F9" transform="translate(299.015467, 86.474418) rotate(-20.000000) translate(-299.015467, -86.474418) "></path>
                        </g>
                        <line x1="173.734547" y1="139.947823" x2="177.023895" y2="155.341196" id="Line-10" stroke="#9DA1A9" stroke-width="4" stroke-linecap="round" stroke-dasharray="6,6" transform="translate(175.379221, 147.644509) scale(-1, 1) rotate(-8.000000) translate(-175.379221, -147.644509) "></line>
                    </g>
                    <g id="Group-2" transform="translate(121.000000, 413.000000)">
                        <g id="FOLDY" transform="translate(131.000000, 174.000000) scale(-1, 1) rotate(-270.000000) translate(-131.000000, -174.000000) translate(-42.896104, 43.972472)" stroke="#9DA1A9" stroke-width="5">
                            <path d="M52.4947453,0 L343.792208,0 C346.001347,-4.05812251e-16 347.792208,1.790861 347.792208,4 L347.792208,260.558173 C347.792208,262.767312 346.001347,264.558173 343.792208,264.558173 L4,264.558173 C1.790861,264.558173 2.705415e-16,262.767312 0,260.558173 L0,50.5546644 C-1.3338643e-16,49.4654816 0.444156638,48.4233978 1.2298817,47.6691065 L49.724627,1.11444207 C50.4695384,0.39933154 51.4621388,-2.54402477e-16 52.4947453,0 Z" id="Rectangle" fill="#FFFFFF" fill-rule="evenodd"></path>
                            <g id="Rectangle-13-Copy-2" transform="translate(35.454545, 27.581597) scale(-1, 1) rotate(90.000000) translate(-35.454545, -27.581597) translate(10.129870, 5.628897)" stroke-linecap="round">
                                <path d="M50.6493506,0 L50.6493506,31.1507254 C50.6493506,35.3802892 46.3018263,38.8090281 40.9388833,38.8090281 L0,38.8090281"></path>
                            </g>
                        </g>
                        <rect id="Rectangle-4-Copy-25" fill="#6599F5" x="145.069264" y="54.1044873" width="52.9004329" height="12.3835741" rx="6.19178704"></rect>
                        <path d="M150.569264,105.890343 L189.093074,105.890343 C192.13064,105.890343 194.593074,108.352776 194.593074,111.390343 L194.593074,112.773917 C194.593074,115.811483 192.13064,118.273917 189.093074,118.273917 L150.569264,118.273917 C147.531698,118.273917 145.069264,115.811483 145.069264,112.773917 L145.069264,111.390343 C145.069264,108.352776 147.531698,105.890343 150.569264,105.890343 Z" id="Rectangle-2-Copy-19" fill="#C1C4CB"></path>
                        <path d="M150.569264,79.9974149 L205.97619,79.9974149 C209.013757,79.9974149 211.47619,82.4598488 211.47619,85.4974149 L211.47619,85.7552096 C211.47619,88.7927757 209.013757,91.2552096 205.97619,91.2552096 L150.569264,91.2552096 C147.531698,91.2552096 145.069264,88.7927757 145.069264,85.7552096 L145.069264,85.4974149 C145.069264,82.4598488 147.531698,79.9974149 150.569264,79.9974149 Z" id="Rectangle-2-Copy-20" fill="#C1C4CB"></path>
                        <path d="M66.1536797,174.56289 L205.97619,174.56289 C209.013757,174.56289 211.47619,177.025324 211.47619,180.06289 L211.47619,180.320684 C211.47619,183.35825 209.013757,185.820684 205.97619,185.820684 L66.1536797,185.820684 C63.1161135,185.820684 60.6536797,183.35825 60.6536797,180.320684 L60.6536797,180.06289 C60.6536797,177.025324 63.1161135,174.56289 66.1536797,174.56289 Z" id="Rectangle-2-Copy-24" fill="#C1C4CB"></path>
                        <path d="M66.1536797,261.247908 L160.954545,261.247908 C163.992112,261.247908 166.454545,263.710342 166.454545,266.747908 L166.454545,267.005703 C166.454545,270.043269 163.992112,272.505703 160.954545,272.505703 L66.1536797,272.505703 C63.1161135,272.505703 60.6536797,270.043269 60.6536797,267.005703 L60.6536797,266.747908 C60.6536797,263.710342 63.1161135,261.247908 66.1536797,261.247908 Z" id="Rectangle-2-Copy-27" fill="#C1C4CB"></path>
                        <path d="M66.1536797,199.330038 L168.833333,199.330038 C171.870899,199.330038 174.333333,201.792472 174.333333,204.830038 L174.333333,205.087833 C174.333333,208.125399 171.870899,210.587833 168.833333,210.587833 L66.1536797,210.587833 C63.1161135,210.587833 60.6536797,208.125399 60.6536797,205.087833 L60.6536797,204.830038 C60.6536797,201.792472 63.1161135,199.330038 66.1536797,199.330038 Z" id="Rectangle-2-Copy-25" fill="#C1C4CB"></path>
                        <rect id="Rectangle-2-Copy-26" fill="#C1C4CB" x="60.6536797" y="149.795742" width="150.822511" height="11.2577946" rx="5.5"></rect>
                        <g id="Group-9" transform="translate(58.402597, 54.104487)">
                            <rect id="Rectangle-2-Copy-23" fill="#DFE1E4" x="0" y="0" width="64.1558442" height="64.1694293" rx="3.5"></rect>
                            <path d="M0.3692989,48.3093098 L21.426179,35.4740807 L40.8369247,42.0857998 L64.1558442,20.2640303 L64.1558442,60.1694293 C64.1558442,62.3785683 62.3649832,64.1694293 60.1558442,64.1694293 L4,64.1694293 C1.790861,64.1694293 2.705415e-16,62.3785683 0,60.1694293 L0,48.4940797 L0,48.4940797" id="Line" fill="#C1C4CB"></path>
                        </g>
                        <rect id="Rectangle-2-Copy-28" fill="#C1C4CB" x="60.6536797" y="236.48076" width="150.822511" height="11.2577946" rx="5.5"></rect>
                    </g>
                    <path d="M557.332106,0.965710885 C559.815948,1.16614482 561.666788,3.33936601 561.466074,5.81973627 C561.265359,8.30010653 559.089097,10.1483601 556.605255,9.94792618 C548.883016,9.32477907 541.110088,9.01149425 533.298676,9.01149425 C530.806738,9.01149425 528.786623,6.99420255 528.786623,4.50574713 C528.786623,2.0172917 530.806738,0 533.298676,0 C541.352736,0 549.368144,0.323057891 557.332106,0.965710885 Z M604.783944,8.72752993 C607.201796,9.32979937 608.672934,11.7753527 608.069822,14.1898261 C607.466709,16.6042995 605.017733,18.0733811 602.599881,17.4711117 C595.070653,15.5956359 587.453845,14.0264667 579.763772,12.7691772 C577.304576,12.3671107 575.637399,10.0503852 576.040028,7.59462611 C576.442658,5.13886698 578.762625,3.4740202 581.221821,3.87608675 C589.156085,5.17330006 597.015096,6.79236673 604.783944,8.72752993 Z M650.322546,24.1426529 C652.608792,25.1326487 653.658487,27.7859768 652.667106,30.0690271 C651.675724,32.3520774 649.018683,33.4003053 646.732437,32.4103095 C639.602518,29.322894 632.344425,26.5275552 624.973965,24.0325223 C622.613942,23.2336121 621.349316,20.6754643 622.149344,18.3187393 C622.949372,15.9620142 625.5111,14.6991558 627.871124,15.4980661 C635.47642,18.0725952 642.965682,20.956965 650.322546,24.1426529 Z M692.71968,46.7906423 C694.813523,48.1398926 695.415604,50.9286992 694.064466,53.0196163 C692.713327,55.1105333 689.920618,55.7117731 687.826774,54.3625228 C681.29091,50.1508822 674.585145,46.2072815 667.725792,42.5427927 C665.528527,41.3689427 664.700218,38.6386037 665.875711,36.4444099 C667.051203,34.2502161 669.785364,33.423064 671.982628,34.596914 C679.059237,38.3774676 685.977192,42.4458552 692.71968,46.7906423 Z M730.8398,76.0004282 C732.687042,77.6706494 732.828651,80.5200238 731.156092,82.3646841 C729.483533,84.2093443 726.630171,84.3507551 724.782929,82.6805339 C719.01919,77.4691319 713.045636,72.493497 706.877893,67.7672469 C704.900935,66.2523331 704.528092,63.4238515 706.045126,61.4496562 C707.56216,59.475461 710.3946,59.1031398 712.371559,60.6180535 C718.733402,65.4930397 724.894841,70.6251723 730.8398,76.0004282 Z M763.771611,111.043265 C765.323533,112.99023 765.001079,115.824881 763.051389,117.374635 C761.101699,118.924388 758.263081,118.602385 756.711158,116.655419 C751.867078,110.578277 746.77666,104.699565 741.453805,99.0347669 C739.748669,97.2200924 739.839527,94.3686543 741.656741,92.6659016 C743.473955,90.9631488 746.329384,91.0538794 748.03452,92.8685539 C753.524687,98.7114121 758.775155,104.774958 763.771611,111.043265 Z M790.549121,150.913203 C791.763657,153.086088 790.984296,155.830761 788.80837,157.0436 C786.632443,158.256439 783.88393,157.478167 782.669393,155.305282 C778.879315,148.524583 774.812777,141.901651 770.481158,135.452744 C769.093043,133.386122 769.645427,130.587076 771.714942,129.200901 C773.784457,127.814726 776.58742,128.366338 777.975535,130.432961 C782.443987,137.085583 786.639097,143.917914 790.549121,150.913203 Z M810.435434,194.540843 C811.278327,196.882622 810.060584,199.463353 807.715528,200.305068 C805.370472,201.146783 802.786129,199.930741 801.943236,197.588963 C799.311092,190.276176 796.380123,183.080088 793.158884,176.016593 C792.126101,173.751919 793.127315,171.079971 795.395159,170.048632 C797.663002,169.017292 800.338689,170.017107 801.371472,172.281781 C804.695184,179.569977 807.719457,186.995145 810.435434,194.540843 Z M822.926051,240.933923 C823.372989,243.382027 821.747947,245.728417 819.296417,246.174731 C816.844886,246.621045 814.495213,244.998274 814.048274,242.550169 C812.650778,234.895399 810.941672,227.31793 808.926811,219.832262 C808.27997,217.429103 809.706475,214.957322 812.112998,214.311385 C814.519521,213.665449 816.994761,215.089959 817.641602,217.493119 C819.720628,225.217175 821.484129,233.035809 822.926051,240.933923 Z M813.830676,383.46165 C813.073176,385.832347 810.534581,387.140961 808.160566,386.38452 C805.78655,385.628079 804.476105,383.093032 805.233605,380.722335 C807.593576,373.336486 809.651223,365.847669 811.399975,358.270849 C811.959645,355.845967 814.381854,354.33328 816.810131,354.892167 C819.238407,355.451055 820.753211,357.869879 820.193541,360.294762 C818.389089,368.112912 816.265866,375.840392 813.830676,383.46165 Z M795.5039,427.837573 C794.367957,430.052442 791.649074,430.928372 789.431104,429.794016 C787.213135,428.65966 786.335979,425.944577 787.471923,423.729707 C791.01487,416.821646 794.273842,409.769392 797.239492,402.589045 C798.189639,400.288577 800.827393,399.192849 803.13108,400.141668 C805.434768,401.090487 806.532029,403.724554 805.581883,406.025022 C802.521906,413.433749 799.159355,420.710144 795.5039,427.837573 Z M770.180377,468.616078 C768.698862,470.616991 765.873526,471.039725 763.869812,469.560281 C761.866098,468.080837 761.442772,465.259449 762.924287,463.258536 C767.548486,457.013157 771.916059,450.582219 776.014864,443.981885 C777.328166,441.867064 780.109608,441.215818 782.227388,442.527285 C784.345168,443.838752 784.997326,446.616307 783.684024,448.731127 C779.455768,455.539916 774.950378,462.17378 770.180377,468.616078 Z M738.54382,504.779981 C736.757404,506.514928 733.900807,506.475227 732.163432,504.691307 C730.426057,502.907388 730.465813,500.054783 732.252229,498.319836 C737.826905,492.905776 743.179562,487.267391 748.295728,481.419726 C749.935282,479.545751 752.785686,479.353859 754.662284,480.991122 C756.538881,482.628385 756.731042,485.474805 755.091488,487.348779 C749.814516,493.380241 744.293663,499.195801 738.54382,504.779981 Z M701.42572,535.377815 C699.381214,536.800518 696.568873,536.298764 695.144178,534.257116 C693.719484,532.215469 694.22194,529.407057 696.266445,527.984354 C702.645871,523.545123 708.842363,518.847414 714.839986,513.904184 C716.761869,512.320172 719.605755,512.591892 721.191984,514.511089 C722.778213,516.430285 722.506112,519.270197 720.58423,520.854209 C714.397834,525.953026 708.006198,530.798678 701.42572,535.377815 Z M659.961578,559.474966 C657.712669,560.546854 655.019414,559.595238 653.946026,557.349471 C652.872637,555.103705 653.825585,552.414215 656.074495,551.342327 C663.093272,547.996996 669.97016,544.365896 676.688887,540.459299 C678.842373,539.207157 681.604602,539.935401 682.858496,542.085877 C684.112391,544.236354 683.383128,546.994722 681.229642,548.246864 C674.298067,552.277221 667.203117,556.023461 659.961578,559.474966 Z M615.011697,576.527312 C612.617287,577.216678 610.11661,575.83718 609.426279,573.446116 C608.735948,571.055052 610.117377,568.557871 612.511787,567.868505 C619.990505,565.715334 627.368149,563.257688 634.629251,560.503015 C636.958747,559.619265 639.564601,560.788634 640.449588,563.114875 C641.334575,565.441116 640.163569,568.043328 637.834073,568.927078 C630.341603,571.769526 622.728797,574.305509 615.011697,576.527312 Z M567.841467,585.997392 C565.366379,586.286296 563.125394,584.516849 562.836086,582.045221 C562.546777,579.573593 564.318701,577.33574 566.793788,577.046836 C574.538478,576.142838 582.220176,574.925497 589.825114,573.399724 C592.268232,572.909563 594.64668,574.489979 595.137527,576.929683 C595.628374,579.369386 594.045746,581.744511 591.602628,582.234672 C583.756292,583.808876 575.831114,585.064802 567.841467,585.997392 Z M519.755328,587.694366 C517.265942,587.58178 515.339291,585.475286 515.452034,582.989379 C515.564777,580.503471 517.67422,578.579514 520.163606,578.692099 C524.528614,578.889512 528.907682,578.988506 533.298676,578.988506 C536.703095,578.988506 540.100388,578.928998 543.489563,578.810248 C545.979968,578.722988 548.069678,580.668302 548.157059,583.155227 C548.244441,585.642152 546.296405,587.728941 543.805999,587.8162 C540.311393,587.938645 536.808606,588 533.298676,588 C528.771523,588 524.256327,587.897929 519.755328,587.694366 Z M472.083866,581.635306 C469.645856,581.120408 468.08745,578.729365 468.603069,576.294762 C469.118688,573.86016 471.513078,572.303932 473.951088,572.81883 C481.536697,574.420882 489.201335,575.715228 496.931132,576.696823 C499.403162,577.010742 501.152301,579.2664 500.837942,581.734975 C500.523584,584.203551 498.264769,585.950245 495.792739,585.636326 C487.818209,584.623653 479.910428,583.288247 472.083866,581.635306 Z M426.029199,567.874151 C423.70869,566.967129 422.563862,564.353327 423.472153,562.036061 C424.380445,559.718795 426.997904,558.575567 429.318414,559.482589 C436.550769,562.309514 443.902133,564.840547 451.356967,567.068079 C453.744322,567.78143 455.100561,570.292343 454.386212,572.676361 C453.671864,575.060379 451.157436,576.414722 448.770082,575.701372 C441.07763,573.402839 433.491967,570.791138 426.029199,567.874151 Z M382.806585,546.740349 C380.665876,545.466544 379.964557,542.70096 381.240144,540.563243 C382.515731,538.425527 385.285186,537.725187 387.425895,538.998992 C394.10595,542.973884 400.946783,546.67483 407.9321,550.091379 C410.170023,551.185957 411.095645,553.884947 409.999536,556.119742 C408.903426,558.354538 406.200659,559.278866 403.962736,558.184289 C396.755816,554.659353 389.698165,550.841106 382.806585,546.740349 Z M343.679439,518.91059 C341.773946,517.306955 341.531062,514.464402 343.136942,512.561572 C344.742822,510.658742 347.589353,510.416197 349.494846,512.019833 C355.443849,517.026429 361.594383,521.789425 367.930554,526.295694 C369.960334,527.739269 370.43391,530.55268 368.988315,532.579624 C367.542719,534.606568 364.72537,535.079482 362.69559,533.635907 C356.159802,528.98767 349.815633,524.074723 343.679439,518.91059 Z M259.90082,403.287051 C258.974032,400.9771 260.097928,398.354255 262.411112,397.428762 C264.724296,396.50327 267.350812,397.625595 268.2776,399.935546 C271.170691,407.146363 274.358386,414.231591 277.831512,421.175167 C278.945038,423.40136 278.040517,426.107475 275.811209,427.219444 C273.5819,428.331414 270.871998,427.428157 269.758472,425.201964 C266.175009,418.037801 262.885961,410.727297 259.90082,403.287051 Z M245.743459,357.364932 C245.208779,354.934433 246.748401,352.531286 249.182302,351.997353 C251.616202,351.46342 254.022713,353.00089 254.557393,355.431389 C256.228651,363.028434 258.209603,370.539845 260.493836,377.950745 C261.226904,380.32909 259.890445,382.850558 257.508772,383.582601 C255.127099,384.314644 252.602102,382.980053 251.869035,380.601709 C249.512003,372.954622 247.467932,365.203875 245.743459,357.364932 Z M239.303983,309.77661 C239.17237,307.291627 241.082972,305.170607 243.571432,305.039178 C246.059892,304.907748 248.183881,306.81568 248.315494,309.300662 C248.727674,317.083013 249.454222,324.816118 250.49107,332.487056 C250.824401,334.953148 249.092659,337.222152 246.623115,337.555017 C244.153572,337.887882 241.881393,336.15856 241.548061,333.692468 C240.478504,325.779536 239.729092,317.803077 239.303983,309.77661 Z M240.638149,261.754376 C240.908439,259.280601 243.135749,257.494018 245.612985,257.76393 C248.090221,258.033842 249.879305,260.258039 249.609015,262.731813 C248.768428,270.425128 248.23831,278.175052 248.022415,285.969009 C247.953511,288.456513 245.87831,290.417253 243.387325,290.348445 C240.89634,290.279637 238.932855,288.207336 239.001759,285.719833 C239.224397,277.682446 239.771134,269.68957 240.638149,261.754376 Z M249.749763,214.60249 C250.421291,212.206093 252.911055,210.807049 255.310806,211.477639 C257.710557,212.148228 259.111559,214.634512 258.440031,217.03091 C256.347172,224.49943 254.559675,232.062301 253.083559,239.704892 C252.611628,242.148314 250.245495,243.747059 247.798653,243.275788 C245.351811,242.804516 243.750829,240.44169 244.22276,237.998268 C245.745826,230.112589 247.590236,222.308922 249.749763,214.60249 Z M320.645921,90.6742301 C322.369544,88.8770559 325.225752,88.8154773 327.025441,90.5366906 C328.825131,92.2579039 328.886796,95.1101205 327.163173,96.9072948 C321.783871,102.516147 316.634637,108.341204 311.729498,114.36708 C310.157664,116.298051 307.315888,116.590969 305.382215,115.021332 C303.448542,113.451694 303.155214,110.61389 304.727048,108.682919 C309.786449,102.467535 315.097554,96.4593627 320.645921,90.6742301 Z M356.630226,58.7949778 C358.622576,57.3003074 361.45106,57.7014991 362.947823,59.6910646 C364.444585,61.68063 364.042832,64.5051613 362.050482,65.9998317 C355.833223,70.6640491 349.807747,75.5798241 343.989764,80.7336729 C342.1256,82.385039 339.273827,82.2146444 337.620149,80.3530858 C335.966472,78.4915272 336.137105,75.6437391 338.001269,73.992373 C344.002213,68.6764485 350.217253,63.6060211 356.630226,58.7949778 Z M397.257278,33.2024028 C399.466395,32.0509495 402.191982,32.9058524 403.345047,35.1118819 C404.498111,37.3179113 403.642012,40.0396888 401.432895,41.191142 C394.537359,44.7852875 387.792797,48.6600472 381.215519,52.8045268 C379.108064,54.1324774 376.321612,53.5029525 374.991803,51.3984436 C373.661994,49.2939348 374.2924,46.5113766 376.399854,45.183426 C383.185161,40.9078634 390.14324,36.9104379 397.257278,33.2024028 Z M441.530115,14.5646643 C443.898112,13.7896381 446.446914,15.0783128 447.223025,17.4429998 C447.999136,19.8076868 446.708658,22.3529273 444.340661,23.1279535 C436.946035,25.5481554 429.661256,28.269572 422.502057,31.2841505 C420.205904,32.2510095 417.559612,31.1760048 416.5914,28.8830603 C415.623188,26.5901159 416.699697,23.9475231 418.995851,22.9806642 C426.382992,19.870104 433.899845,17.0619904 441.530115,14.5646643 Z M488.325681,3.40912152 C490.788844,3.03204776 493.091739,4.72036667 493.46934,7.18008735 C493.846942,9.63980802 492.15626,11.9394843 489.693097,12.316558 C481.989825,13.4958146 474.357513,14.9873257 466.810357,16.7856683 C464.386468,17.3632346 461.952652,15.8692405 461.374277,13.4487389 C460.795903,11.0282374 462.291988,8.59782327 464.715877,8.02025697 C472.503114,6.16470778 480.37798,4.62579661 488.325681,3.40912152 Z M533.283791,3.67798529e-07 C535.775729,-0.000122784201 537.796067,2.01706908 537.796067,4.5055245 C537.796067,6.99397992 535.776176,9.01137146 533.284238,9.01149461 C526.460417,9.01183184 519.665811,9.25124664 512.90852,9.72749227 C510.422765,9.90268523 508.265442,8.03242103 508.090004,5.55014026 C507.914566,3.06785949 509.787447,0.913551378 512.273202,0.738358417 C519.241742,0.247224261 526.248103,0.000348072692 533.283791,3.67798529e-07 Z" id="Oval" fill="#6599F5" fill-rule="nonzero"></path>
                    <g id="Group-5" transform="translate(879.000000, 218.000000)" fill="#C1C4CB">
                        <rect id="Rectangle-2-Copy-32" x="1.125" y="0" width="61.875" height="11.3333333" rx="5.5"></rect>
                        <rect id="Rectangle-2-Copy-34" x="0" y="22.6666667" width="46.125" height="11.3333333" rx="5.5"></rect>
                    </g>
                </g>
                <g id="Group-14-Copy-2" transform="translate(460.000000, 224.000000)">
                    <polygon id="Path" fill="#ADC8F9" fill-rule="nonzero" points="0 20 140 20 140 137 110.5 152.5 76.5 156.5 34.5 152.5 15 148 0 137"></polygon>
                    <polygon id="Path" fill-opacity="0.6" fill="#FFFFFF" fill-rule="nonzero" points="76 42 124 42 124 149 76 156"></polygon>
                    <path d="M139,94.9432 C139,95.1063 138.995,95.269 138.986,95.4314 L139,95.4318 L139,133.545 L138.986,133.546 C138.23,146.544 107.41,157 69.5,157 C31.5904,157 0.76995,146.544 0.0142,133.546 L0,133.545 L0,95.4318 L0.01416,95.4314 C0.00474,95.269 0,95.1063 0,94.9432" id="Path" stroke="#6599F5" stroke-width="5"></path>
                    <path d="M139,59 C139,59.1672 138.995,59.334 138.986,59.5004 L139,59.5 L139,98.5 L138.986,98.5 C138.23,111.8 107.409,122.5 69.5,122.5 C31.5905,122.5 0.77014,111.8 0.01421,98.5 L0,98.5 L0,59.5 L0.01421,59.5004 C0.00475,59.334 0,59.1672 0,59" id="Path" stroke="#6599F5" stroke-width="5"></path>
                    <path d="M69.5,0 C107.884,0 139,10.7197 139,23.9432 C139,24.1063 138.995,24.269 138.986,24.4314 L139,24.4318 L139,62.5455 L138.986,62.5458 C138.23,75.5435 107.41,86 69.5,86 C31.5904,86 0.76995,75.5435 0.0142,62.5458 L0,62.5455 L0,24.4318 L0.01416,24.4314 C0.00474,24.269 0,24.1063 0,23.9432 C0,10.7197 31.1162,0 69.5,0 Z" id="Path" stroke="#6599F5" stroke-width="5"></path>
                    <path d="M105,101.645 C94.6098,103.776 82.4698,105 69.5,105 C58.5587,105 48.2079,104.129 39,102.577" id="Path" stroke="#6599F5" stroke-width="5" stroke-linecap="round" stroke-dasharray="1"></path>
                    <path d="M31.59,44.014 C42.4925,46.4631 55.5138,47.8864 69.5,47.8864 C107.884,47.8864 139,37.1666 139,23.9432 C139,10.7197 107.884,0 69.5,0 C31.1162,0 0,10.7197 0,23.9432 C0,28.2467 3.29565,32.285 9.0649,35.7749" id="Path" fill="#ADC8F9"></path>
                    <path d="M31.59,44.014 C42.4925,46.4631 55.5138,47.8864 69.5,47.8864 C107.884,47.8864 139,37.1666 139,23.9432 C139,10.7197 107.884,0 69.5,0 C31.1162,0 0,10.7197 0,23.9432 C0,28.2467 3.29565,32.285 9.0649,35.7749" id="Path" stroke="#6599F5" stroke-width="5" stroke-linecap="round"></path>
                </g>
            </g>
        </g>
    </g>
</svg>