<svg width="420" height="132" viewBox="0 0 420 132" fill="transparent" xmlns="http://www.w3.org/2000/svg">
<rect width="420" height="132" fill="transparent"/>
<path d="M125.295 65.07C125.295 62.64 125.7 60.405 126.51 58.365C127.32 56.325 128.445 54.57 129.885 53.1C131.325 51.6 133.05 50.43 135.06 49.59C137.1 48.75 139.335 48.33 141.765 48.33C144.195 48.33 146.415 48.75 148.425 49.59C150.465 50.43 152.205 51.6 153.645 53.1C155.085 54.57 156.21 56.325 157.02 58.365C157.83 60.405 158.235 62.64 158.235 65.07C158.235 67.5 157.83 69.75 157.02 71.82C156.21 73.86 155.085 75.63 153.645 77.13C152.205 78.6 150.465 79.755 148.425 80.595C146.415 81.405 144.195 81.81 141.765 81.81C139.335 81.81 137.1 81.405 135.06 80.595C133.05 79.755 131.325 78.6 129.885 77.13C128.445 75.63 127.32 73.86 126.51 71.82C125.7 69.75 125.295 67.5 125.295 65.07ZM128.265 65.07C128.265 67.05 128.58 68.895 129.21 70.605C129.84 72.315 130.74 73.8 131.91 75.06C133.08 76.32 134.49 77.31 136.14 78.03C137.82 78.75 139.695 79.11 141.765 79.11C143.835 79.11 145.695 78.75 147.345 78.03C149.025 77.31 150.45 76.32 151.62 75.06C152.79 73.8 153.69 72.315 154.32 70.605C154.95 68.895 155.265 67.05 155.265 65.07C155.265 63.09 154.95 61.245 154.32 59.535C153.69 57.825 152.79 56.34 151.62 55.08C150.45 53.82 149.025 52.83 147.345 52.11C145.695 51.39 143.835 51.03 141.765 51.03C139.695 51.03 137.82 51.39 136.14 52.11C134.49 52.83 133.08 53.82 131.91 55.08C130.74 56.34 129.84 57.825 129.21 59.535C128.58 61.245 128.265 63.09 128.265 65.07Z" fill="#4D4F5C"/>
<path d="M163.544 60.21H166.244V63.855H166.334C166.754 63.135 167.279 62.52 167.909 62.01C168.539 61.47 169.214 61.035 169.934 60.705C170.684 60.345 171.464 60.09 172.274 59.94C173.084 59.76 173.879 59.67 174.659 59.67C176.249 59.67 177.704 59.94 179.024 60.48C180.374 61.02 181.529 61.785 182.489 62.775C183.479 63.735 184.244 64.89 184.784 66.24C185.324 67.56 185.594 69.015 185.594 70.605C185.594 72.195 185.324 73.665 184.784 75.015C184.244 76.335 183.479 77.49 182.489 78.48C181.529 79.44 180.374 80.19 179.024 80.73C177.704 81.27 176.249 81.54 174.659 81.54C173.879 81.54 173.084 81.45 172.274 81.27C171.464 81.12 170.684 80.88 169.934 80.55C169.214 80.19 168.539 79.755 167.909 79.245C167.279 78.705 166.754 78.075 166.334 77.355H166.244V91.26H163.544V60.21ZM165.974 70.605C165.974 71.775 166.199 72.885 166.649 73.935C167.099 74.955 167.714 75.855 168.494 76.635C169.274 77.385 170.189 77.985 171.239 78.435C172.289 78.885 173.429 79.11 174.659 79.11C175.919 79.11 177.059 78.885 178.079 78.435C179.099 77.985 179.969 77.385 180.689 76.635C181.409 75.855 181.949 74.955 182.309 73.935C182.699 72.885 182.894 71.775 182.894 70.605C182.894 69.435 182.699 68.34 182.309 67.32C181.949 66.27 181.409 65.37 180.689 64.62C179.969 63.84 179.099 63.225 178.079 62.775C177.059 62.325 175.919 62.1 174.659 62.1C173.429 62.1 172.289 62.325 171.239 62.775C170.189 63.225 169.274 63.84 168.494 64.62C167.714 65.37 167.099 66.27 166.649 67.32C166.199 68.34 165.974 69.435 165.974 70.605Z" fill="#4D4F5C"/>
<path d="M209.999 77.085C208.949 78.675 207.644 79.815 206.084 80.505C204.554 81.195 202.859 81.54 200.999 81.54C199.409 81.54 197.969 81.27 196.679 80.73C195.389 80.19 194.279 79.44 193.349 78.48C192.419 77.49 191.699 76.335 191.189 75.015C190.709 73.665 190.469 72.18 190.469 70.56C190.469 69 190.724 67.56 191.234 66.24C191.744 64.92 192.464 63.78 193.394 62.82C194.324 61.83 195.419 61.065 196.679 60.525C197.939 59.955 199.334 59.67 200.864 59.67C202.454 59.67 203.849 59.955 205.049 60.525C206.279 61.065 207.299 61.8 208.109 62.73C208.949 63.63 209.579 64.665 209.999 65.835C210.419 67.005 210.629 68.19 210.629 69.39V71.28H193.169C193.169 71.85 193.274 72.585 193.484 73.485C193.724 74.355 194.144 75.21 194.744 76.05C195.344 76.89 196.139 77.61 197.129 78.21C198.149 78.81 199.454 79.11 201.044 79.11C202.424 79.11 203.759 78.78 205.049 78.12C206.339 77.46 207.329 76.56 208.019 75.42L209.999 77.085ZM207.929 68.85C207.929 67.92 207.734 67.05 207.344 66.24C206.984 65.43 206.474 64.725 205.814 64.125C205.184 63.495 204.419 63 203.519 62.64C202.649 62.28 201.719 62.1 200.729 62.1C199.259 62.1 198.029 62.4 197.039 63C196.079 63.6 195.314 64.29 194.744 65.07C194.174 65.85 193.769 66.615 193.529 67.365C193.289 68.085 193.169 68.58 193.169 68.85H207.929Z" fill="#4D4F5C"/>
<path d="M216.644 66.06C216.644 65.67 216.629 65.205 216.599 64.665C216.569 64.095 216.539 63.525 216.509 62.955C216.509 62.385 216.494 61.86 216.464 61.38C216.434 60.87 216.419 60.48 216.419 60.21H219.119C219.149 60.99 219.164 61.74 219.164 62.46C219.194 63.18 219.239 63.645 219.299 63.855H219.434C219.974 62.715 220.874 61.74 222.134 60.93C223.394 60.09 224.864 59.67 226.544 59.67C228.164 59.67 229.484 59.925 230.504 60.435C231.524 60.945 232.319 61.62 232.889 62.46C233.489 63.27 233.894 64.215 234.104 65.295C234.344 66.375 234.464 67.485 234.464 68.625V81H231.764V68.76C231.764 67.92 231.689 67.11 231.539 66.33C231.389 65.52 231.119 64.8 230.729 64.17C230.369 63.54 229.844 63.045 229.154 62.685C228.494 62.295 227.624 62.1 226.544 62.1C225.554 62.1 224.609 62.28 223.709 62.64C222.839 62.97 222.074 63.495 221.414 64.215C220.784 64.905 220.274 65.79 219.884 66.87C219.524 67.92 219.344 69.165 219.344 70.605V81H216.644V66.06Z" fill="#4D4F5C"/>
<path d="M241.739 49.14H250.379L258.884 71.46L267.479 49.14H276.029V81H270.629V54.54H270.539L260.864 81H256.904L247.229 54.54H247.139V81H241.739V49.14Z" fill="#4D4F5C"/>
<path d="M283.264 49.14H295.684C296.884 49.14 298.069 49.29 299.239 49.59C300.409 49.86 301.444 50.325 302.344 50.985C303.274 51.615 304.024 52.44 304.594 53.46C305.164 54.48 305.449 55.71 305.449 57.15C305.449 58.95 304.939 60.435 303.919 61.605C302.899 62.775 301.564 63.615 299.914 64.125V64.215C300.904 64.335 301.819 64.62 302.659 65.07C303.529 65.49 304.264 66.045 304.864 66.735C305.464 67.395 305.929 68.175 306.259 69.075C306.619 69.945 306.799 70.89 306.799 71.91C306.799 73.65 306.454 75.105 305.764 76.275C305.074 77.415 304.159 78.345 303.019 79.065C301.909 79.755 300.619 80.25 299.149 80.55C297.709 80.85 296.239 81 294.739 81H283.264V49.14ZM288.934 62.1H294.109C295.999 62.1 297.409 61.74 298.339 61.02C299.299 60.27 299.779 59.295 299.779 58.095C299.779 56.715 299.284 55.695 298.294 55.035C297.334 54.345 295.774 54 293.614 54H288.934V62.1ZM288.934 76.14H294.154C294.874 76.14 295.639 76.095 296.449 76.005C297.289 75.915 298.054 75.705 298.744 75.375C299.434 75.045 300.004 74.58 300.454 73.98C300.904 73.35 301.129 72.51 301.129 71.46C301.129 69.78 300.574 68.61 299.464 67.95C298.384 67.29 296.689 66.96 294.379 66.96H288.934V76.14Z" fill="#4D4F5C"/>
<path d="M312.444 49.14H333.549V54.27H318.114V62.1H332.739V67.23H318.114V75.87H334.359V81H312.444V49.14Z" fill="#4D4F5C"/>
<path d="M339.953 49.14H361.058V54.27H345.623V62.1H360.248V67.23H345.623V75.87H361.868V81H339.953V49.14Z" fill="#4D4F5C"/>
<path d="M47.4648 32.9364C53.8339 27.2972 62.2446 23.8682 71.4648 23.8682C79.0625 23.8682 86.1105 26.1965 91.9194 30.1712M36.3569 51.5672C35.7731 54.1124 35.4648 56.7611 35.4648 59.4811C35.4648 74.7811 45.218 87.8276 58.9093 92.8682M84.0204 92.8682C97.7117 87.8276 107.465 74.7811 107.465 59.4811C107.465 58.2837 107.405 57.1 107.288 55.9329" stroke="#4D4F5C" stroke-width="6" stroke-linecap="round"/>
<rect x="62.1157" y="56.6775" width="33.6783" height="14.0837" rx="2" transform="rotate(-30 62.1157 56.6775)" fill="#4D4F5C"/>
<rect x="104.97" y="31.8223" width="33.6783" height="14.0837" rx="2" transform="rotate(-30 104.97 31.8223)" fill="#4D4F5C"/>
<rect x="96.6277" y="39.4728" width="4.89867" height="9.79734" rx="2" transform="rotate(-30 96.6277 39.4728)" fill="#4D4F5C"/>
<rect x="108.922" y="46.7051" width="8" height="16" rx="2" transform="rotate(150 108.922 46.7051)" fill="#4D4F5C"/>
<rect x="30.6841" y="39.6804" width="8" height="16" rx="2" transform="rotate(151.394 30.6841 39.6804)" fill="#4D4F5C"/>
<rect x="43.5283" y="41.8364" width="8" height="16" rx="2" transform="rotate(151.394 43.5283 41.8364)" fill="#4D4F5C"/>
<rect x="79.4651" y="92.8685" width="8" height="16" rx="2" transform="rotate(90 79.4651 92.8685)" fill="#4D4F5C"/>
<rect x="79.4651" y="102.93" width="8" height="16" rx="2" transform="rotate(90 79.4651 102.93)" fill="#4D4F5C"/>
</svg>
