<?xml version="1.0" encoding="UTF-8"?>
<svg width="346px" height="141px" viewBox="0 0 346 141" version="1.1" xmlns="http://www.w3.org/2000/svg" xmlns:xlink="http://www.w3.org/1999/xlink">
    <!-- Generator: Sketch 63.1 (92452) - https://sketch.com -->
    <title>Artboard</title>
    <desc>Created with Sketch.</desc>
    <g id="Artboard" stroke="none" stroke-width="1" fill="none" fill-rule="evenodd">
        <g id="openmbee-logo" transform="translate(0.000000, 22.000000)" fill-rule="nonzero">
            <path d="M109.295,51.07 C109.295,48.64 109.7,46.405 110.51,44.365 C111.32,42.325 112.445,40.57 113.885,39.1 C115.325,37.6 117.05,36.43 119.06,35.59 C121.1,34.75 123.335,34.33 125.765,34.33 C128.195,34.33 130.415,34.75 132.425,35.59 C134.465,36.43 136.205,37.6 137.645,39.1 C139.085,40.57 140.21,42.325 141.02,44.365 C141.83,46.405 142.235,48.64 142.235,51.07 C142.235,53.5 141.83,55.75 141.02,57.82 C140.21,59.86 139.085,61.63 137.645,63.13 C136.205,64.6 134.465,65.755 132.425,66.595 C130.415,67.405 128.195,67.81 125.765,67.81 C123.335,67.81 121.1,67.405 119.06,66.595 C117.05,65.755 115.325,64.6 113.885,63.13 C112.445,61.63 111.32,59.86 110.51,57.82 C109.7,55.75 109.295,53.5 109.295,51.07 Z M112.265,51.07 C112.265,53.05 112.58,54.895 113.21,56.605 C113.84,58.315 114.74,59.8 115.91,61.06 C117.08,62.32 118.49,63.31 120.14,64.03 C121.82,64.75 123.695,65.11 125.765,65.11 C127.835,65.11 129.695,64.75 131.345,64.03 C133.025,63.31 134.45,62.32 135.62,61.06 C136.79,59.8 137.69,58.315 138.32,56.605 C138.95,54.895 139.265,53.05 139.265,51.07 C139.265,49.09 138.95,47.245 138.32,45.535 C137.69,43.825 136.79,42.34 135.62,41.08 C134.45,39.82 133.025,38.83 131.345,38.11 C129.695,37.39 127.835,37.03 125.765,37.03 C123.695,37.03 121.82,37.39 120.14,38.11 C118.49,38.83 117.08,39.82 115.91,41.08 C114.74,42.34 113.84,43.825 113.21,45.535 C112.58,47.245 112.265,49.09 112.265,51.07 Z" id="Shape" fill="#4D4F5C"></path>
            <path d="M147.544,46.21 L150.244,46.21 L150.244,49.855 L150.334,49.855 C150.754,49.135 151.279,48.52 151.909,48.01 C152.539,47.47 153.214,47.035 153.934,46.705 C154.684,46.345 155.464,46.09 156.274,45.94 C157.084,45.76 157.879,45.67 158.659,45.67 C160.249,45.67 161.704,45.94 163.024,46.48 C164.374,47.02 165.529,47.785 166.489,48.775 C167.479,49.735 168.244,50.89 168.784,52.24 C169.324,53.56 169.594,55.015 169.594,56.605 C169.594,58.195 169.324,59.665 168.784,61.015 C168.244,62.335 167.479,63.49 166.489,64.48 C165.529,65.44 164.374,66.19 163.024,66.73 C161.704,67.27 160.249,67.54 158.659,67.54 C157.879,67.54 157.084,67.45 156.274,67.27 C155.464,67.12 154.684,66.88 153.934,66.55 C153.214,66.19 152.539,65.755 151.909,65.245 C151.279,64.705 150.754,64.075 150.334,63.355 L150.244,63.355 L150.244,77.26 L147.544,77.26 L147.544,46.21 Z M149.974,56.605 C149.974,57.775 150.199,58.885 150.649,59.935 C151.099,60.955 151.714,61.855 152.494,62.635 C153.274,63.385 154.189,63.985 155.239,64.435 C156.289,64.885 157.429,65.11 158.659,65.11 C159.919,65.11 161.059,64.885 162.079,64.435 C163.099,63.985 163.969,63.385 164.689,62.635 C165.409,61.855 165.949,60.955 166.309,59.935 C166.699,58.885 166.894,57.775 166.894,56.605 C166.894,55.435 166.699,54.34 166.309,53.32 C165.949,52.27 165.409,51.37 164.689,50.62 C163.969,49.84 163.099,49.225 162.079,48.775 C161.059,48.325 159.919,48.1 158.659,48.1 C157.429,48.1 156.289,48.325 155.239,48.775 C154.189,49.225 153.274,49.84 152.494,50.62 C151.714,51.37 151.099,52.27 150.649,53.32 C150.199,54.34 149.974,55.435 149.974,56.605 Z" id="Shape" fill="#4D4F5C"></path>
            <path d="M193.999,63.085 C192.949,64.675 191.644,65.815 190.084,66.505 C188.554,67.195 186.859,67.54 184.999,67.54 C183.409,67.54 181.969,67.27 180.679,66.73 C179.389,66.19 178.279,65.44 177.349,64.48 C176.419,63.49 175.699,62.335 175.189,61.015 C174.709,59.665 174.469,58.18 174.469,56.56 C174.469,55 174.724,53.56 175.234,52.24 C175.744,50.92 176.464,49.78 177.394,48.82 C178.324,47.83 179.419,47.065 180.679,46.525 C181.939,45.955 183.334,45.67 184.864,45.67 C186.454,45.67 187.849,45.955 189.049,46.525 C190.279,47.065 191.299,47.8 192.109,48.73 C192.949,49.63 193.579,50.665 193.999,51.835 C194.419,53.005 194.629,54.19 194.629,55.39 L194.629,57.28 L177.169,57.28 C177.169,57.85 177.274,58.585 177.484,59.485 C177.724,60.355 178.144,61.21 178.744,62.05 C179.344,62.89 180.139,63.61 181.129,64.21 C182.149,64.81 183.454,65.11 185.044,65.11 C186.424,65.11 187.759,64.78 189.049,64.12 C190.339,63.46 191.329,62.56 192.019,61.42 L193.999,63.085 Z M191.929,54.85 C191.929,53.92 191.734,53.05 191.344,52.24 C190.984,51.43 190.474,50.725 189.814,50.125 C189.184,49.495 188.419,49 187.519,48.64 C186.649,48.28 185.719,48.1 184.729,48.1 C183.259,48.1 182.029,48.4 181.039,49 C180.079,49.6 179.314,50.29 178.744,51.07 C178.174,51.85 177.769,52.615 177.529,53.365 C177.289,54.085 177.169,54.58 177.169,54.85 L191.929,54.85 Z" id="Shape" fill="#4D4F5C"></path>
            <path d="M200.644,52.06 C200.644,51.67 200.629,51.205 200.599,50.665 C200.569,50.095 200.539,49.525 200.509,48.955 C200.509,48.385 200.494,47.86 200.464,47.38 C200.434,46.87 200.419,46.48 200.419,46.21 L203.119,46.21 C203.149,46.99 203.164,47.74 203.164,48.46 C203.194,49.18 203.239,49.645 203.299,49.855 L203.434,49.855 C203.974,48.715 204.874,47.74 206.134,46.93 C207.394,46.09 208.864,45.67 210.544,45.67 C212.164,45.67 213.484,45.925 214.504,46.435 C215.524,46.945 216.319,47.62 216.889,48.46 C217.489,49.27 217.894,50.215 218.104,51.295 C218.344,52.375 218.464,53.485 218.464,54.625 L218.464,67 L215.764,67 L215.764,54.76 C215.764,53.92 215.689,53.11 215.539,52.33 C215.389,51.52 215.119,50.8 214.729,50.17 C214.369,49.54 213.844,49.045 213.154,48.685 C212.494,48.295 211.624,48.1 210.544,48.1 C209.554,48.1 208.609,48.28 207.709,48.64 C206.839,48.97 206.074,49.495 205.414,50.215 C204.784,50.905 204.274,51.79 203.884,52.87 C203.524,53.92 203.344,55.165 203.344,56.605 L203.344,67 L200.644,67 L200.644,52.06 Z" id="Path" fill="#4D4F5C"></path>
            <polygon id="Path" fill="#4D4F5C" points="225.739 35.14 234.379 35.14 242.884 57.46 251.479 35.14 260.029 35.14 260.029 67 254.629 67 254.629 40.54 254.539 40.54 244.864 67 240.904 67 231.229 40.54 231.139 40.54 231.139 67 225.739 67"></polygon>
            <path d="M267.264,35.14 L279.684,35.14 C280.884,35.14 282.069,35.29 283.239,35.59 C284.409,35.86 285.444,36.325 286.344,36.985 C287.274,37.615 288.024,38.44 288.594,39.46 C289.164,40.48 289.449,41.71 289.449,43.15 C289.449,44.95 288.939,46.435 287.919,47.605 C286.899,48.775 285.564,49.615 283.914,50.125 L283.914,50.215 C284.904,50.335 285.819,50.62 286.659,51.07 C287.529,51.49 288.264,52.045 288.864,52.735 C289.464,53.395 289.929,54.175 290.259,55.075 C290.619,55.945 290.799,56.89 290.799,57.91 C290.799,59.65 290.454,61.105 289.764,62.275 C289.074,63.415 288.159,64.345 287.019,65.065 C285.909,65.755 284.619,66.25 283.149,66.55 C281.709,66.85 280.239,67 278.739,67 L267.264,67 L267.264,35.14 Z M272.934,48.1 L278.109,48.1 C279.999,48.1 281.409,47.74 282.339,47.02 C283.299,46.27 283.779,45.295 283.779,44.095 C283.779,42.715 283.284,41.695 282.294,41.035 C281.334,40.345 279.774,40 277.614,40 L272.934,40 L272.934,48.1 Z M272.934,62.14 L278.154,62.14 C278.874,62.14 279.639,62.095 280.449,62.005 C281.289,61.915 282.054,61.705 282.744,61.375 C283.434,61.045 284.004,60.58 284.454,59.98 C284.904,59.35 285.129,58.51 285.129,57.46 C285.129,55.78 284.574,54.61 283.464,53.95 C282.384,53.29 280.689,52.96 278.379,52.96 L272.934,52.96 L272.934,62.14 Z" id="Shape" fill="#4D4F5C"></path>
            <polygon id="Path" fill="#4D4F5C" points="296.444 35.14 317.549 35.14 317.549 40.27 302.114 40.27 302.114 48.1 316.739 48.1 316.739 53.23 302.114 53.23 302.114 61.87 318.359 61.87 318.359 67 296.444 67"></polygon>
            <polygon id="Path" fill="#4D4F5C" points="323.953 35.14 345.058 35.14 345.058 40.27 329.623 40.27 329.623 48.1 344.248 48.1 344.248 53.23 329.623 53.23 329.623 61.87 345.868 61.87 345.868 67 323.953 67"></polygon>
            <path d="M31.4648,18.9364 C37.8339,13.2972 46.2446,9.8682 55.4648,9.8682 C63.0625,9.8682 70.1105,12.1965 75.9194,16.1712 M20.3569,37.5672 C19.7731,40.1124 19.4648,42.7611 19.4648,45.4811 C19.4648,60.7811 29.218,73.8276 42.9093,78.8682 M68.0204,78.8682 C81.7117,73.8276 91.465,60.7811 91.465,45.4811 C91.465,44.2837 91.405,43.1 91.288,41.9329" id="Shape" stroke="#4D4F5C" stroke-width="6" stroke-linecap="round"></path>
            <rect id="Rectangle" fill="#4D4F5C" transform="translate(64.219757, 40.356346) rotate(-30.000000) translate(-64.219757, -40.356346) " x="47.3806067" y="33.314496" width="33.6783" height="14.0837" rx="2"></rect>
            <rect id="Rectangle" fill="#4D4F5C" transform="translate(107.074057, 15.501146) rotate(-30.000000) translate(-107.074057, -15.501146) " x="90.2349067" y="8.45929599" width="33.6783" height="14.0837" rx="2"></rect>
            <rect id="Rectangle" fill="#4D4F5C" transform="translate(85.198221, 28.490505) rotate(-30.000000) translate(-85.198221, -28.490505) " x="82.7488863" y="23.5918352" width="4.89867" height="9.79734" rx="2"></rect>
            <rect id="Rectangle" fill="#4D4F5C" transform="translate(85.457898, 27.776897) rotate(150.000000) translate(-85.457898, -27.776897) " x="81.4578984" y="19.7768968" width="8" height="16" rx="2"></rect>
            <rect id="Rectangle" fill="#4D4F5C" transform="translate(7.342098, 20.572072) rotate(151.394000) translate(-7.342098, -20.572072) " x="3.34209825" y="12.5720725" width="8" height="16" rx="2"></rect>
            <rect id="Rectangle" fill="#4D4F5C" transform="translate(20.186298, 22.728072) rotate(151.394000) translate(-20.186298, -22.728072) " x="16.1862983" y="14.7280725" width="8" height="16" rx="2"></rect>
            <rect id="Rectangle" fill="#4D4F5C" transform="translate(55.465100, 82.868500) rotate(90.000000) translate(-55.465100, -82.868500) " x="51.4651" y="74.8685" width="8" height="16" rx="2"></rect>
            <rect id="Rectangle" fill="#4D4F5C" transform="translate(55.465100, 92.930000) rotate(90.000000) translate(-55.465100, -92.930000) " x="51.4651" y="84.93" width="8" height="16" rx="2"></rect>
        </g>
    </g>
</svg>